<svg version="1.1" viewBox="0.0 0.0 960.0 720.0" fill="none" stroke="none" stroke-linecap="square" stroke-miterlimit="10" xmlns:xlink="http://www.w3.org/1999/xlink" xmlns="http://www.w3.org/2000/svg"><clipPath id="p.0"><path d="m0 0l960.0 0l0 720.0l-960.0 0l0 -720.0z" clip-rule="nonzero"/></clipPath><g clip-path="url(#p.0)"><path fill="#e6b8af" d="m0 0l960.0 0l0 720.0l-960.0 0z" fill-rule="evenodd"/><path fill="#dd7e6b" d="m178.8189 359.99213l0 0c0 -166.33772 134.84337 -301.1811 301.1811 -301.1811l0 0c79.878174 0 156.4848 31.731487 212.96722 88.21391c56.48236 56.482407 88.21387 133.08899 88.21387 212.9672l0 0c0 166.3377 -134.84338 301.1811 -301.1811 301.1811l0 0c-166.33774 0 -301.1811 -134.84338 -301.1811 -301.1811z" fill-rule="evenodd"/><path stroke="#af4c38" stroke-width="4.0" stroke-linejoin="round" stroke-linecap="butt" d="m178.8189 359.99213l0 0c0 -166.33772 134.84337 -301.1811 301.1811 -301.1811l0 0c79.878174 0 156.4848 31.731487 212.96722 88.21391c56.48236 56.482407 88.21387 133.08899 88.21387 212.9672l0 0c0 166.3377 -134.84338 301.1811 -301.1811 301.1811l0 0c-166.33774 0 -301.1811 -134.84338 -301.1811 -301.1811z" fill-rule="evenodd"/><path fill="#dd7e6b" d="m294.6299 360.0l0 0c0 -102.377075 82.99301 -185.37007 185.37009 -185.37007l0 0c49.163208 0 96.312805 19.529999 131.07642 54.293625c34.76367 34.76364 54.29364 81.91324 54.29364 131.07645l0 0c0 102.377075 -82.99298 185.37006 -185.37006 185.37006l0 0c-102.377075 0 -185.37009 -82.99298 -185.37009 -185.37006z" fill-rule="evenodd"/><path stroke="#b5604f" stroke-width="8.0" stroke-linejoin="round" stroke-linecap="butt" d="m294.6299 360.0l0 0c0 -102.377075 82.99301 -185.37007 185.37009 -185.37007l0 0c49.163208 0 96.312805 19.529999 131.07642 54.293625c34.76367 34.76364 54.29364 81.91324 54.29364 131.07645l0 0c0 102.377075 -82.99298 185.37006 -185.37006 185.37006l0 0c-102.377075 0 -185.37009 -82.99298 -185.37009 -185.37006z" fill-rule="evenodd"/><path fill="#000000" fill-opacity="0.0" d="m758.91864 24.614174l173.92126 0l0 80.125984l-173.92126 0z" fill-rule="evenodd"/><path fill="#000000" d="m783.2282 78.01716l0 -26.718746l8.65625 0q4.921875 0 6.421875 0.40625q2.28125 0.59375 3.828125 2.609375q1.5625 2.015625 1.5625 5.203125q0 2.453125 -0.90625 4.140625q-0.890625 1.6718712 -2.265625 2.6406212q-1.375 0.953125 -2.796875 1.25q-1.921875 0.390625 -5.59375 0.390625l-3.515625 0l0 10.078125l-5.390625 0zm5.390625 -22.203121l0 7.578125l2.953125 0q3.1875 0 4.265625 -0.40625q1.078125 -0.421875 1.6875 -1.3125q0.609375 -0.90625 0.609375 -2.078125q0 -1.46875 -0.859375 -2.40625q-0.859375 -0.953125 -2.171875 -1.1875q-0.953125 -0.1875 -3.875 -0.1875l-2.609375 0zm19.460083 22.203121l0 -26.718746l5.125 0l0 26.718746l-5.125 0zm14.199097 -13.453125l-4.640625 -0.8437462q0.78125 -2.796875 2.6875 -4.140625q1.921875 -1.359375 5.703125 -1.359375q3.421875 0 5.09375 0.8125q1.6875 0.8125 2.359375 2.0625q0.6875 1.25 0.6875 4.578121l-0.046875 5.984375q0 2.546875 0.234375 3.765625q0.25 1.203125 0.921875 2.59375l-5.0625 0q-0.203125 -0.515625 -0.5 -1.515625q-0.125 -0.453125 -0.171875 -0.59375q-1.3125 1.265625 -2.8125 1.90625q-1.5 0.640625 -3.1875 0.640625q-2.984375 0 -4.71875 -1.625q-1.71875 -1.625 -1.71875 -4.09375q0 -1.640625 0.78125 -2.921875q0.78125 -1.296875 2.1875 -1.96875q1.421875 -0.6875 4.09375 -1.203125q3.578125 -0.671875 4.96875 -1.25l0 -0.515625q0 -1.4843712 -0.734375 -2.1093712q-0.71875 -0.625 -2.75 -0.625q-1.359375 0 -2.125 0.546875q-0.765625 0.53125 -1.25 1.8749962zm6.859375 4.15625q-0.984375 0.328125 -3.125 0.78125q-2.125 0.453125 -2.78125 0.890625q-1.0 0.71875 -1.0 1.8125q0 1.078125 0.796875 1.859375q0.8125 0.78125 2.046875 0.78125q1.390625 0 2.640625 -0.90625q0.9375 -0.703125 1.21875 -1.703125q0.203125 -0.65625 0.203125 -2.5l0 -1.015625zm8.275757 3.78125l5.140625 -0.796875q0.328125 1.5 1.328125 2.28125q1.0 0.765625 2.8125 0.765625q1.984375 0 2.984375 -0.71875q0.671875 -0.515625 0.671875 -1.375q0 -0.578125 -0.359375 -0.96875q-0.390625 -0.359375 -1.71875 -0.671875q-6.1875 -1.359375 -7.859375 -2.5q-2.296875 -1.5625 -2.296875 -4.359375q0 -2.5156212 1.984375 -4.218746q2.0 -1.71875 6.171875 -1.71875q3.96875 0 5.90625 1.296875q1.9375 1.296875 2.65625 3.828125l-4.828125 0.8906212q-0.3125 -1.1249962 -1.1875 -1.7187462q-0.859375 -0.609375 -2.453125 -0.609375q-2.03125 0 -2.90625 0.5625q-0.578125 0.40625 -0.578125 1.03125q0 0.5468712 0.515625 0.9374962q0.6875 0.515625 4.78125 1.453125q4.09375 0.921875 5.71875 2.265625q1.59375 1.359375 1.59375 3.8125q0 2.65625 -2.21875 4.578125q-2.21875 1.90625 -6.578125 1.90625q-3.953125 0 -6.265625 -1.59375q-2.3125 -1.609375 -3.015625 -4.359375zm22.182007 -13.843746l4.71875 0l0 2.640625q2.53125 -3.078125 6.03125 -3.078125q1.859375 0 3.21875 0.765625q1.375 0.765625 2.25 2.3125q1.28125 -1.546875 2.75 -2.3125q1.484375 -0.765625 3.15625 -0.765625q2.140625 0 3.609375 0.875q1.484375 0.859375 2.203064 2.53125q0.53125 1.25 0.53125 4.015621l0 12.375l-5.124939 0l0 -11.0625q0 -2.875 -0.53125 -3.7187462q-0.703125 -1.09375 -2.1875 -1.09375q-1.0625 0 -2.015625 0.65625q-0.953125 0.65625 -1.375 1.9218712q-0.40625 1.265625 -0.40625 4.0l0 9.296875l-5.125 0l0 -10.609375q0 -2.828125 -0.28125 -3.6406212q-0.265625 -0.828125 -0.84375 -1.21875q-0.578125 -0.40625 -1.5625 -0.40625q-1.171875 0 -2.125 0.640625q-0.953125 0.640625 -1.359375 1.8437462q-0.40625 1.203125 -0.40625 3.984375l0 9.40625l-5.125 0l0 -19.359371zm37.3938 5.906246l-4.640625 -0.8437462q0.78125 -2.796875 2.6875 -4.140625q1.921875 -1.359375 5.703125 -1.359375q3.421875 0 5.09375 0.8125q1.6875 0.8125 2.359375 2.0625q0.6875 1.25 0.6875 4.578121l-0.046875 5.984375q0 2.546875 0.234375 3.765625q0.25 1.203125 0.921875 2.59375l-5.0625 0q-0.203125 -0.515625 -0.5 -1.515625q-0.125 -0.453125 -0.171875 -0.59375q-1.3125 1.265625 -2.8125 1.90625q-1.5 0.640625 -3.1875 0.640625q-2.984375 0 -4.71875 -1.625q-1.71875 -1.625 -1.71875 -4.09375q0 -1.640625 0.78125 -2.921875q0.78125 -1.296875 2.1875 -1.96875q1.421875 -0.6875 4.09375 -1.203125q3.578125 -0.671875 4.96875 -1.25l0 -0.515625q0 -1.4843712 -0.734375 -2.1093712q-0.71875 -0.625 -2.75 -0.625q-1.359375 0 -2.125 0.546875q-0.765625 0.53125 -1.25 1.8749962zm6.859375 4.15625q-0.984375 0.328125 -3.125 0.78125q-2.125 0.453125 -2.78125 0.890625q-1.0 0.71875 -1.0 1.8125q0 1.078125 0.796875 1.859375q0.8125 0.78125 2.046875 0.78125q1.390625 0 2.640625 -0.90625q0.9375 -0.703125 1.21875 -1.703125q0.203125 -0.65625 0.203125 -2.5l0 -1.015625z" fill-rule="nonzero"/><path fill="#000000" fill-opacity="0.0" d="m186.98163 276.83728l97.13385 0l0 68.0l-97.13385 0z" fill-rule="evenodd"/><path fill="#000000" d="m207.96146 322.55728l0 -22.90625l4.625 0l0 9.015625l9.0625 0l0 -9.015625l4.625 0l0 22.90625l-4.625 0l0 -10.015625l-9.0625 0l0 10.015625l-4.625 0z" fill-rule="nonzero"/><path fill="#000000" d="m239.50833 331.83853l0 2.71875l-10.25 0q0.171875 -1.546875 1.0 -2.921875q0.828125 -1.375 3.296875 -3.65625q1.96875 -1.84375 2.421875 -2.5q0.609375 -0.90625 0.609375 -1.796875q0 -0.96875 -0.53125 -1.5q-0.53125 -0.53125 -1.453125 -0.53125q-0.921875 0 -1.46875 0.5625q-0.53125 0.546875 -0.609375 1.828125l-2.921875 -0.296875q0.265625 -2.40625 1.640625 -3.453125q1.375 -1.0625 3.4375 -1.0625q2.25 0 3.53125 1.21875q1.296875 1.21875 1.296875 3.03125q0 1.03125 -0.375 1.96875q-0.359375 0.921875 -1.15625 1.9375q-0.53125 0.6875 -1.921875 1.953125q-1.375 1.265625 -1.75 1.6875q-0.375 0.421875 -0.59375 0.8125l5.796875 0z" fill-rule="nonzero"/><path fill="#000000" d="m241.9794 311.24478q0 -3.5 1.046875 -5.875q0.78125 -1.75 2.125 -3.140625q1.359375 -1.390625 2.96875 -2.0625q2.140625 -0.90625 4.9375 -0.90625q5.0625 0 8.09375 3.140625q3.046875 3.140625 3.046875 8.734375q0 5.546875 -3.015625 8.6875q-3.015625 3.125 -8.0625 3.125q-5.109375 0 -8.125 -3.109375q-3.015625 -3.125 -3.015625 -8.59375zm4.765625 -0.15625q0 3.890625 1.796875 5.90625q1.796875 2.0 4.5625 2.0q2.765625 0 4.53125 -1.984375q1.78125 -2.0 1.78125 -5.984375q0 -3.9375 -1.734375 -5.875q-1.71875 -1.9375 -4.578125 -1.9375q-2.859375 0 -4.609375 1.96875q-1.75 1.953125 -1.75 5.90625z" fill-rule="nonzero"/><path fill="#000000" fill-opacity="0.0" d="m284.11548 251.33228l118.99213 2.4252014" fill-rule="evenodd"/><path stroke="#000000" stroke-width="1.0" stroke-linejoin="round" stroke-linecap="butt" d="m284.11548 251.33226l112.99338 2.302948" fill-rule="evenodd"/><path fill="#000000" stroke="#000000" stroke-width="1.0" stroke-linecap="butt" d="m397.0752 255.28659l4.5708313 -1.5589142l-4.5035095 -1.743866z" fill-rule="evenodd"/><path fill="#000000" fill-opacity="0.0" d="m152.98425 183.33858c33.692917 0 50.539368 17.0 67.38582 34.0c16.846466 17.0 33.692917 34.0 67.38585 34.0" fill-rule="evenodd"/><path stroke="#000000" stroke-width="1.0" stroke-linejoin="round" stroke-linecap="butt" d="m158.98132 183.52592l0.12704468 0.0077209473c1.978302 0.12867737 3.894928 0.31958008 5.753952 0.5686188c3.7180634 0.49804688 7.2057953 1.2285004 10.49614 2.1581879c6.5806427 1.859375 12.371613 4.515625 17.636124 7.703125c10.529037 6.375 18.95227 14.875 27.375488 23.375c16.846466 17.0 33.692917 34.0 67.38585 34.0" fill-rule="evenodd"/><path fill="#000000" stroke="#000000" stroke-width="1.0" stroke-linecap="butt" d="m159.0329 181.875l-4.5874634 1.5092316l4.484314 1.7926178z" fill-rule="evenodd"/><path fill="#000000" fill-opacity="0.0" d="m235.54855 276.83728c0 -12.75592 27.322845 -25.511826 54.64566 -25.511826" fill-rule="evenodd"/><path stroke="#000000" stroke-width="1.0" stroke-linejoin="round" stroke-linecap="butt" d="m237.3227 271.10556l0.12281799 -0.19897461c0.24598694 -0.38885498 0.51446533 -0.7758179 0.804657 -1.1604309c0.5803375 -0.76919556 1.2473907 -1.5290833 1.9945068 -2.2764893c2.9884338 -2.989685 7.2576294 -5.7800293 12.380661 -8.171753c10.246063 -4.783478 23.90747 -7.972458 37.56888 -7.972458" fill-rule="evenodd"/><path fill="#000000" stroke="#000000" stroke-width="1.0" stroke-linecap="butt" d="m235.74483 270.61716l0.23600769 4.823578l2.9197388 -3.8467712z" fill-rule="evenodd"/><path fill="#000000" fill-opacity="0.0" d="m403.1076 218.54593l118.99213 0l0 68.0l-118.99213 0z" fill-rule="evenodd"/><path fill="#000000" d="m418.78653 264.26593l0 -22.90625l4.625 0l0 9.015625l9.0625 0l0 -9.015625l4.625 0l0 22.90625l-4.625 0l0 -10.015625l-9.0625 0l0 10.015625l-4.625 0z" fill-rule="nonzero"/><path fill="#000000" d="m450.3334 273.54718l0 2.71875l-10.25 0q0.171875 -1.546875 1.0 -2.921875q0.828125 -1.375 3.296875 -3.65625q1.96875 -1.84375 2.421875 -2.5q0.609375 -0.90625 0.609375 -1.796875q0 -0.96875 -0.53125 -1.5q-0.53125 -0.53125 -1.453125 -0.53125q-0.921875 0 -1.46875 0.5625q-0.53125 0.546875 -0.609375 1.828125l-2.921875 -0.296875q0.265625 -2.40625 1.640625 -3.453125q1.375 -1.0625 3.4375 -1.0625q2.25 0 3.53125 1.21875q1.296875 1.21875 1.296875 3.03125q0 1.03125 -0.375 1.96875q-0.359375 0.921875 -1.15625 1.9375q-0.53125 0.6875 -1.921875 1.953125q-1.375 1.265625 -1.75 1.6875q-0.375 0.421875 -0.59375 0.8125l5.796875 0z" fill-rule="nonzero"/><path fill="#000000" d="m467.67947 256.20343l4.296875 1.359375q-0.984375 3.59375 -3.28125 5.34375q-2.296875 1.734375 -5.828125 1.734375q-4.375 0 -7.1875 -2.984375q-2.8125 -2.984375 -2.8125 -8.171875q0 -5.46875 2.828125 -8.5q2.828125 -3.03125 7.4375 -3.03125q4.03125 0 6.546875 2.375q1.5 1.40625 2.234375 4.046875l-4.375 1.046875q-0.390625 -1.71875 -1.625 -2.703125q-1.234375 -0.984375 -3.0 -0.984375q-2.4375 0 -3.96875 1.75q-1.515625 1.75 -1.515625 5.671875q0 4.15625 1.5 5.9375q1.5 1.765625 3.890625 1.765625q1.765625 0 3.03125 -1.125q1.28125 -1.125 1.828125 -3.53125zm7.2014465 -2.78125q0 -3.34375 1.0 -5.625q0.75 -1.671875 2.046875 -3.0q1.296875 -1.34375 2.84375 -1.984375q2.046875 -0.859375 4.71875 -0.859375q4.859375 0 7.765625 3.015625q2.921875 3.0 2.921875 8.359375q0 5.3125 -2.890625 8.3125q-2.890625 3.0 -7.734375 3.0q-4.890625 0 -7.78125 -2.984375q-2.890625 -2.984375 -2.890625 -8.234375zm4.5625 -0.140625q0 3.71875 1.71875 5.65625q1.734375 1.921875 4.375 1.921875q2.65625 0 4.34375 -1.90625q1.703125 -1.921875 1.703125 -5.734375q0 -3.765625 -1.65625 -5.625q-1.640625 -1.859375 -4.390625 -1.859375q-2.734375 0 -4.421875 1.875q-1.671875 1.875 -1.671875 5.671875z" fill-rule="nonzero"/><path fill="#000000" d="m498.16385 271.89093l2.71875 -0.34375q0.125 1.046875 0.6875 1.59375q0.578125 0.546875 1.390625 0.546875q0.859375 0 1.453125 -0.65625q0.59375 -0.65625 0.59375 -1.78125q0 -1.046875 -0.578125 -1.671875q-0.5625 -0.625 -1.375 -0.625q-0.53125 0 -1.28125 0.21875l0.3125 -2.28125q1.125 0.015625 1.71875 -0.5q0.609375 -0.53125 0.609375 -1.390625q0 -0.734375 -0.4375 -1.171875q-0.4375 -0.453125 -1.171875 -0.453125q-0.71875 0 -1.234375 0.5q-0.5 0.5 -0.609375 1.46875l-2.578125 -0.453125q0.265625 -1.3125 0.796875 -2.109375q0.546875 -0.796875 1.515625 -1.25q0.984375 -0.453125 2.1875 -0.453125q2.0625 0 3.3125 1.3125q1.03125 1.078125 1.03125 2.4375q0 1.921875 -2.109375 3.078125q1.265625 0.265625 2.015625 1.203125q0.75 0.9375 0.75 2.265625q0 1.921875 -1.40625 3.28125q-1.40625 1.359375 -3.5 1.359375q-1.984375 0 -3.296875 -1.140625q-1.296875 -1.140625 -1.515625 -2.984375z" fill-rule="nonzero"/><path fill="#000000" fill-opacity="0.0" d="m403.1076 449.5538l118.99213 0l0 68.00003l-118.99213 0z" fill-rule="evenodd"/><path fill="#000000" d="m421.31445 495.2738l0 -22.90625l4.625 0l0 9.015625l9.0625 0l0 -9.015625l4.625 0l0 22.90625l-4.625 0l0 -10.015625l-9.0625 0l0 10.015625l-4.625 0z" fill-rule="nonzero"/><path fill="#000000" d="m458.3457 487.2113l4.296875 1.359375q-0.984375 3.59375 -3.28125 5.34375q-2.296875 1.734375 -5.828125 1.734375q-4.375 0 -7.1875 -2.984375q-2.8125 -2.984375 -2.8125 -8.171875q0 -5.46875 2.828125 -8.5q2.828125 -3.03125 7.4375 -3.03125q4.03125 0 6.546875 2.375q1.5 1.40625 2.234375 4.046875l-4.375 1.046875q-0.390625 -1.71875 -1.625 -2.703125q-1.234375 -0.984375 -3.0 -0.984375q-2.4375 0 -3.96875 1.75q-1.515625 1.75 -1.515625 5.671875q0 4.15625 1.5 5.9375q1.5 1.765625 3.890625 1.765625q1.765625 0 3.03125 -1.125q1.28125 -1.125 1.828125 -3.53125zm7.2014465 -2.78125q0 -3.34375 1.0 -5.625q0.75 -1.671875 2.046875 -3.0q1.296875 -1.34375 2.84375 -1.984375q2.046875 -0.859375 4.71875 -0.859375q4.859375 0 7.765625 3.015625q2.921875 3.0 2.921875 8.359375q0 5.3125 -2.890625 8.3125q-2.890625 3.0 -7.734375 3.0q-4.890625 0 -7.78125 -2.984375q-2.890625 -2.984375 -2.890625 -8.234375zm4.5625 -0.140625q0 3.71875 1.71875 5.65625q1.734375 1.921875 4.375 1.921875q2.65625 0 4.34375 -1.90625q1.703125 -1.921875 1.703125 -5.734375q0 -3.765625 -1.65625 -5.625q-1.640625 -1.859375 -4.390625 -1.859375q-2.734375 0 -4.421875 1.875q-1.671875 1.875 -1.671875 5.671875z" fill-rule="nonzero"/><path fill="#000000" d="m488.83008 502.8988l2.71875 -0.34375q0.125 1.046875 0.6875 1.59375q0.578125 0.546875 1.390625 0.546875q0.859375 0 1.453125 -0.65625q0.59375 -0.65625 0.59375 -1.78125q0 -1.046875 -0.578125 -1.671875q-0.5625 -0.625 -1.375 -0.625q-0.53125 0 -1.28125 0.21875l0.3125 -2.28125q1.125 0.015625 1.71875 -0.5q0.609375 -0.53125 0.609375 -1.390625q0 -0.734375 -0.4375 -1.171875q-0.4375 -0.453125 -1.171875 -0.453125q-0.71875 0 -1.234375 0.5q-0.5 0.5 -0.609375 1.46875l-2.578125 -0.453125q0.265625 -1.3125 0.796875 -2.109375q0.546875 -0.796875 1.515625 -1.25q0.984375 -0.453125 2.1875 -0.453125q2.0625 0 3.3125 1.3125q1.03125 1.078125 1.03125 2.4375q0 1.921875 -2.109375 3.078125q1.265625 0.265625 2.015625 1.203125q0.75 0.9375 0.75 2.265625q0 1.921875 -1.40625 3.28125q-1.40625 1.359375 -3.5 1.359375q-1.984375 0 -3.296875 -1.140625q-1.296875 -1.140625 -1.515625 -2.984375z" fill-rule="nonzero"/><path fill="#000000" d="m500.58707 479.86755l0 -2.796875l5.5 0l0 2.796875l-5.5 0z" fill-rule="nonzero"/><path fill="#000000" fill-opacity="0.0" d="m462.60367 286.54593l0 163.02362" fill-rule="evenodd"/><path stroke="#000000" stroke-width="1.0" stroke-linejoin="round" stroke-linecap="butt" d="m462.60367 292.54593l0 151.02362" fill-rule="evenodd"/><path fill="#000000" stroke="#000000" stroke-width="1.0" stroke-linecap="butt" d="m464.2554 292.54593l-1.6517334 -4.538086l-1.6517334 4.538086z" fill-rule="evenodd"/><path fill="#000000" stroke="#000000" stroke-width="1.0" stroke-linecap="butt" d="m460.95193 443.56955l1.6517334 4.5381165l1.6517334 -4.5381165z" fill-rule="evenodd"/><path fill="#000000" fill-opacity="0.0" d="m539.08954 301.71915c-12.546326 9.803162 -73.861725 37.671936 -75.2782 58.81891c-1.4164429 21.146973 55.649597 56.719177 66.77954 68.06299" fill-rule="evenodd"/><path stroke="#000000" stroke-width="1.0" stroke-linejoin="round" stroke-linecap="butt" d="m534.1212 305.08298l-0.75653076 0.46875c-0.3423462 0.21029663 -0.6937866 0.42434692 -1.053833 0.6420288c-2.880066 1.7415161 -6.3099365 3.716919 -10.077332 5.877777c-7.53479 4.321686 -16.419678 9.385162 -24.956787 14.803131c-17.074188 10.835968 -32.75714 23.089905 -33.465393 33.66339c-0.70825195 10.573486 13.204163 24.753296 28.684875 37.707672c7.740387 6.4772034 15.872803 12.648041 22.765747 17.9086c3.4464722 2.6302795 6.58313 5.032959 9.205872 7.1325684c0.32788086 0.2624817 0.6477051 0.52020264 0.95910645 0.77301025l0.678833 0.5556946" fill-rule="evenodd"/><path fill="#000000" stroke="#000000" stroke-width="1.0" stroke-linecap="butt" d="m535.04724 306.4507l2.831787 -3.9119568l-4.683838 1.1764832z" fill-rule="evenodd"/><path fill="#000000" stroke="#000000" stroke-width="1.0" stroke-linecap="butt" d="m525.0086 425.8503l4.489502 1.7796936l-2.295227 -4.2490845z" fill-rule="evenodd"/><path fill="#000000" fill-opacity="0.0" d="m532.0236 239.40158l118.99213 0l0 68.0l-118.99213 0z" fill-rule="evenodd"/><path fill="#000000" d="m557.633 263.44156l3.59375 -17.187485l2.28125 0l-1.484375 7.140625l8.90625 0l1.484375 -7.140625l2.296875 0l-3.578125 17.187485l-2.296875 0l1.6875 -8.093735l-8.90625 0l-1.6875 8.093735l-2.296875 0z" fill-rule="nonzero"/><path fill="#000000" d="m574.8244 269.4416l1.375 -0.171875q0.15625 1.203125 0.6875 1.71875q0.546875 0.515625 1.40625 0.515625q1.046875 0 1.8125 -0.75q0.765625 -0.75 0.765625 -1.71875q0 -0.84375 -0.578125 -1.390625q-0.5625 -0.546875 -1.53125 -0.546875q-0.109375 0 -0.453125 0.03125l0.25 -1.1875q0.203125 0.03125 0.390625 0.03125q1.203125 0 1.859375 -0.578125q0.65625 -0.59375 0.65625 -1.453125q0 -0.796875 -0.546875 -1.328125q-0.53125 -0.546875 -1.296875 -0.546875q-0.765625 0 -1.375 0.5625q-0.59375 0.546875 -0.765625 1.546875l-1.390625 -0.28125q0.34375 -1.40625 1.3125 -2.171875q0.984375 -0.78125 2.3125 -0.78125q1.40625 0 2.28125 0.859375q0.875 0.84375 0.875 2.078125q0 0.90625 -0.484375 1.59375q-0.46875 0.671875 -1.40625 1.109375q0.671875 0.40625 1.0 0.96875q0.328125 0.5625 0.328125 1.28125q0 1.546875 -1.15625 2.6875q-1.140625 1.125 -2.75 1.125q-1.546875 0 -2.515625 -0.875q-0.953125 -0.875 -1.0625 -2.328125z" fill-rule="nonzero"/><path fill="#000000" d="m583.8791 263.44156l3.59375 -17.187485l7.171875 0q1.875 0 2.796875 0.4375q0.9375 0.421875 1.546875 1.46875q0.609375 1.03125 0.609375 2.3125q0 1.078125 -0.4375 2.1875q-0.4375 1.09375 -1.09375 1.8125q-0.65625 0.703125 -1.34375 1.078125q-0.671875 0.359375 -1.453125 0.53123474q-1.65625 0.390625 -3.34375 0.390625l-4.296875 0l-1.453125 6.96875l-2.296875 0zm4.15625 -8.92186l3.796875 0q2.203125 0 3.234375 -0.46875q1.03125 -0.484375 1.640625 -1.453125q0.625 -0.96875 0.625 -2.0625q0 -0.84375 -0.328125 -1.375q-0.328125 -0.53125 -0.921875 -0.78125q-0.59375 -0.25 -2.296875 -0.25l-4.40625 0l-1.34375 6.390625zm13.0078125 1.7187347q0 -4.5937347 2.65625 -7.4218597q2.65625 -2.84375 6.4375 -2.84375q3.21875 0 5.234375 2.09375q2.03125 2.078125 2.03125 5.59375q0 2.5156097 -1.03125 4.6562347q-0.75 1.609375 -1.921875 2.78125q-1.15625 1.15625 -2.484375 1.796875q-1.75 0.84375 -3.71875 0.84375q-2.0625 0 -3.765625 -0.984375q-1.6875 -0.984375 -2.5625 -2.75q-0.875 -1.765625 -0.875 -3.765625zm2.265625 0.125q0 1.515625 0.625 2.78125q0.625 1.265625 1.859375 1.984375q1.25 0.703125 2.625 0.703125q1.328125 0 2.515625 -0.625q1.203125 -0.625 2.140625 -1.734375q0.953125 -1.125 1.484375 -2.765625q0.546875 -1.6406097 0.546875 -3.2187347q0 -2.5625 -1.4375 -4.078125q-1.421875 -1.53125 -3.53125 -1.53125q-2.703125 0 -4.765625 2.3125q-2.0625 2.296875 -2.0625 6.1718597z" fill-rule="nonzero"/><path fill="#000000" d="m622.3049 272.4416l0.625 -2.921875l-4.671875 0l0.296875 -1.40625l6.40625 -7.125l1.15625 0l-1.515625 7.28125l1.609375 0l-0.265625 1.25l-1.609375 0l-0.609375 2.921875l-1.421875 0zm0.875 -4.171875l1.0 -4.78125l-4.265625 4.78125l3.265625 0z" fill-rule="nonzero"/><path fill="#000000" d="m556.5295 296.4416l3.59375 -17.1875l2.28125 0l-1.484375 7.140625l8.90625 0l1.484375 -7.140625l2.296875 0l-3.578125 17.1875l-2.296875 0l1.6875 -8.09375l-8.90625 0l-1.6875 8.09375l-2.296875 0zm17.003906 1.125l2.140625 0.203125q-0.03125 0.71875 0.171875 1.078125q0.203125 0.375 0.640625 0.578125q0.5625 0.25 1.484375 0.25q1.921875 0 2.765625 -1.0q0.546875 -0.65625 1.015625 -2.90625l0.21875 -1.0q-1.65625 1.671875 -3.515625 1.671875q-1.890625 0 -3.171875 -1.390625q-1.265625 -1.390625 -1.265625 -3.9375q0 -2.09375 1.0 -3.84375q1.0 -1.765625 2.375 -2.65625q1.390625 -0.90625 2.859375 -0.90625q2.453125 0 3.78125 2.328125l0.421875 -2.046875l1.9375 0l-2.5 12.015625q-0.421875 1.984375 -1.09375 3.09375q-0.65625 1.109375 -1.84375 1.71875q-1.1875 0.609375 -2.75 0.609375q-1.5 0 -2.59375 -0.390625q-1.078125 -0.390625 -1.609375 -1.140625q-0.53125 -0.734375 -0.53125 -1.6875q0 -0.296875 0.0625 -0.640625zm2.640625 -6.640625q0 1.28125 0.25 1.921875q0.34375 0.90625 1.0 1.390625q0.65625 0.46875 1.453125 0.46875q1.03125 0 2.0625 -0.734375q1.03125 -0.734375 1.671875 -2.265625q0.640625 -1.53125 0.640625 -2.9375q0 -1.53125 -0.859375 -2.4375q-0.84375 -0.90625 -2.09375 -0.90625q-0.765625 0 -1.5 0.421875q-0.71875 0.40625 -1.359375 1.265625q-0.625 0.84375 -0.953125 2.03125q-0.3125 1.171875 -0.3125 1.78125zm11.066406 5.515625l3.59375 -17.1875l5.328125 0q1.453125 0 2.15625 0.125q1.140625 0.203125 1.921875 0.703125q0.796875 0.484375 1.234375 1.359375q0.4375 0.859375 0.4375 1.890625q0 1.421875 -0.78125 2.5q-0.78125 1.078125 -2.390625 1.640625q1.40625 0.453125 2.09375 1.375q0.6875 0.921875 0.6875 2.15625q0 1.421875 -0.8125 2.71875q-0.8125 1.296875 -2.15625 2.015625q-1.34375 0.703125 -3.0 0.703125l-8.3125 0zm4.359375 -9.84375l3.484375 0q2.484375 0 3.578125 -0.796875q1.109375 -0.796875 1.109375 -2.328125q0 -0.71875 -0.34375 -1.25q-0.34375 -0.53125 -0.921875 -0.765625q-0.5625 -0.234375 -2.125 -0.234375l-3.65625 0l-1.125 5.375zm-1.65625 7.890625l3.921875 0q1.546875 0 2.09375 -0.09375q1.09375 -0.1875 1.765625 -0.640625q0.6875 -0.453125 1.0625 -1.1875q0.390625 -0.75 0.390625 -1.546875q0 -1.21875 -0.765625 -1.84375q-0.75 -0.625 -2.859375 -0.625l-4.359375 0l-1.25 5.9375zm13.3671875 -3.203125l0.453125 -2.125l6.46875 0l-0.4375 2.125l-6.484375 0zm7.8984375 5.15625l3.59375 -17.1875l2.28125 0l-1.484375 7.140625l8.90625 0l1.484375 -7.140625l2.296875 0l-3.578125 17.1875l-2.296875 0l1.6875 -8.09375l-8.90625 0l-1.6875 8.09375l-2.296875 0z" fill-rule="nonzero"/><path fill="#000000" fill-opacity="0.0" d="m522.80945 420.52756l118.99213 0l0 68.0l-118.99213 0z" fill-rule="evenodd"/><path fill="#000000" d="m545.75476 444.56757l3.59375 -17.1875l2.28125 0l-1.484375 7.140625l8.90625 0l1.484375 -7.140625l2.296875 0l-3.578125 17.1875l-2.296875 0l1.6875 -8.09375l-8.90625 0l-1.6875 8.09375l-2.296875 0z" fill-rule="nonzero"/><path fill="#000000" d="m563.00867 453.56757q0.21875 -1.03125 0.609375 -1.71875q0.390625 -0.6875 1.03125 -1.3125q0.640625 -0.625 2.46875 -2.078125q1.109375 -0.890625 1.515625 -1.3125q0.578125 -0.609375 0.84375 -1.1875q0.1875 -0.40625 0.1875 -0.875q0 -0.78125 -0.5625 -1.328125q-0.5625 -0.5625 -1.375 -0.5625q-0.796875 0 -1.40625 0.5625q-0.59375 0.5625 -0.859375 1.796875l-1.375 -0.203125q0.203125 -1.53125 1.171875 -2.40625q0.984375 -0.875 2.453125 -0.875q0.96875 0 1.765625 0.40625q0.796875 0.40625 1.1875 1.140625q0.40625 0.734375 0.40625 1.515625q0 1.140625 -0.8125 2.1875q-0.5 0.65625 -2.9375 2.59375q-1.046875 0.828125 -1.5625 1.359375q-0.515625 0.53125 -0.765625 1.0l5.125 0l-0.28125 1.296875l-6.828125 0z" fill-rule="nonzero"/><path fill="#000000" d="m572.00085 444.56757l3.59375 -17.1875l7.171875 0q1.875 0 2.796875 0.4375q0.9375 0.421875 1.546875 1.46875q0.609375 1.03125 0.609375 2.3125q0 1.078125 -0.4375 2.1875q-0.4375 1.09375 -1.09375 1.8125q-0.65625 0.703125 -1.34375 1.078125q-0.671875 0.359375 -1.453125 0.53125q-1.65625 0.390625 -3.34375 0.390625l-4.296875 0l-1.453125 6.96875l-2.296875 0zm4.15625 -8.921875l3.796875 0q2.203125 0 3.234375 -0.46875q1.03125 -0.484375 1.640625 -1.453125q0.625 -0.96875 0.625 -2.0625q0 -0.84375 -0.328125 -1.375q-0.328125 -0.53125 -0.921875 -0.78125q-0.59375 -0.25 -2.296875 -0.25l-4.40625 0l-1.34375 6.390625zm13.0078125 1.71875q0 -4.59375 2.65625 -7.421875q2.65625 -2.84375 6.4375 -2.84375q3.21875 0 5.234375 2.09375q2.03125 2.078125 2.03125 5.59375q0 2.515625 -1.03125 4.65625q-0.75 1.609375 -1.921875 2.78125q-1.15625 1.15625 -2.484375 1.796875q-1.75 0.84375 -3.71875 0.84375q-2.0625 0 -3.765625 -0.984375q-1.6875 -0.984375 -2.5625 -2.75q-0.875 -1.765625 -0.875 -3.765625zm2.265625 0.125q0 1.515625 0.625 2.78125q0.625 1.265625 1.859375 1.984375q1.25 0.703125 2.625 0.703125q1.328125 0 2.515625 -0.625q1.203125 -0.625 2.140625 -1.734375q0.953125 -1.125 1.484375 -2.765625q0.546875 -1.640625 0.546875 -3.21875q0 -2.5625 -1.4375 -4.078125q-1.421875 -1.53125 -3.53125 -1.53125q-2.703125 0 -4.765625 2.3125q-2.0625 2.296875 -2.0625 6.171875z" fill-rule="nonzero"/><path fill="#000000" d="m610.42664 453.56757l0.625 -2.921875l-4.671875 0l0.296875 -1.40625l6.40625 -7.125l1.15625 0l-1.515625 7.28125l1.609375 0l-0.265625 1.25l-1.609375 0l-0.609375 2.921875l-1.421875 0zm0.875 -4.171875l1.0 -4.78125l-4.265625 4.78125l3.265625 0z" fill-rule="nonzero"/><path fill="#000000" d="m615.2938 432.13007l0.296875 -1.421875l4.3125 0l-0.296875 1.421875l-4.3125 0z" fill-rule="nonzero"/><path fill="#000000" d="m557.31335 477.56757l3.59375 -17.1875l2.28125 0l-1.484375 7.140625l8.90625 0l1.484375 -7.140625l2.296875 0l-3.578125 17.1875l-2.296875 0l1.6875 -8.09375l-8.90625 0l-1.6875 8.09375l-2.296875 0zm17.003906 1.125l2.140625 0.203125q-0.03125 0.71875 0.171875 1.078125q0.203125 0.375 0.640625 0.578125q0.5625 0.25 1.484375 0.25q1.921875 0 2.765625 -1.0q0.546875 -0.65625 1.015625 -2.90625l0.21875 -1.0q-1.65625 1.671875 -3.515625 1.671875q-1.890625 0 -3.171875 -1.390625q-1.265625 -1.390625 -1.265625 -3.9375q0 -2.09375 1.0 -3.84375q1.0 -1.765625 2.375 -2.65625q1.390625 -0.90625 2.859375 -0.90625q2.453125 0 3.78125 2.328125l0.421875 -2.046875l1.9375 0l-2.5 12.015625q-0.421875 1.984375 -1.09375 3.09375q-0.65625 1.109375 -1.84375 1.71875q-1.1875 0.609375 -2.75 0.609375q-1.5 0 -2.59375 -0.390625q-1.078125 -0.390625 -1.609375 -1.140625q-0.53125 -0.734375 -0.53125 -1.6875q0 -0.296875 0.0625 -0.640625zm2.640625 -6.640625q0 1.28125 0.25 1.921875q0.34375 0.90625 1.0 1.390625q0.65625 0.46875 1.453125 0.46875q1.03125 0 2.0625 -0.734375q1.03125 -0.734375 1.671875 -2.265625q0.640625 -1.53125 0.640625 -2.9375q0 -1.53125 -0.859375 -2.4375q-0.84375 -0.90625 -2.09375 -0.90625q-0.765625 0 -1.5 0.421875q-0.71875 0.40625 -1.359375 1.265625q-0.625 0.84375 -0.953125 2.03125q-0.3125 1.171875 -0.3125 1.78125zm11.066406 5.515625l3.59375 -17.1875l5.328125 0q1.453125 0 2.15625 0.125q1.140625 0.203125 1.921875 0.703125q0.796875 0.484375 1.234375 1.359375q0.4375 0.859375 0.4375 1.890625q0 1.421875 -0.78125 2.5q-0.78125 1.078125 -2.390625 1.640625q1.40625 0.453125 2.09375 1.375q0.6875 0.921875 0.6875 2.15625q0 1.421875 -0.8125 2.71875q-0.8125 1.296875 -2.15625 2.015625q-1.34375 0.703125 -3.0 0.703125l-8.3125 0zm4.359375 -9.84375l3.484375 0q2.484375 0 3.578125 -0.796875q1.109375 -0.796875 1.109375 -2.328125q0 -0.71875 -0.34375 -1.25q-0.34375 -0.53125 -0.921875 -0.765625q-0.5625 -0.234375 -2.125 -0.234375l-3.65625 0l-1.125 5.375zm-1.65625 7.890625l3.921875 0q1.546875 0 2.09375 -0.09375q1.09375 -0.1875 1.765625 -0.640625q0.6875 -0.453125 1.0625 -1.1875q0.390625 -0.75 0.390625 -1.546875q0 -1.21875 -0.765625 -1.84375q-0.75 -0.625 -2.859375 -0.625l-4.359375 0l-1.25 5.9375z" fill-rule="nonzero"/><path fill="#000000" d="m603.7352 465.13007l0.296875 -1.421875l4.3125 0l-0.296875 1.421875l-4.3125 0z" fill-rule="nonzero"/><path fill="#000000" fill-opacity="0.0" d="m387.81628 430.5853l0 -125.07086l81.60629 0l0 125.07086z" fill-rule="evenodd"/><path fill="#000000" d="m417.72443 397.86758l0.28125 -2.015625q2.640625 0.953125 4.0 2.78125q1.359375 1.828125 1.359375 4.109375q0 2.78125 -1.703125 4.421875q-1.703125 1.625 -4.859375 1.625q-4.125 0 -6.828125 -2.484375q-2.40625 -2.203125 -2.40625 -5.484375q0 -2.421875 1.3125 -3.921875q1.296875 -1.515625 3.5 -1.75l0.171875 1.90625q-1.65625 0.296875 -2.46875 1.25q-0.828125 0.9375 -0.828125 2.421875q0 2.796875 2.5 4.53125q2.140625 1.5 5.078125 1.5q2.359375 0 3.609375 -1.15625q1.234375 -1.15625 1.234375 -3.015625q0 -1.578125 -1.03125 -2.859375q-1.03125 -1.28125 -2.921875 -1.859375zm4.0 -10.714996q0.84375 0.984375 1.234375 1.890625q0.390625 0.90625 0.390625 1.9375q0 1.53125 -0.890625 2.46875q-0.90625 0.9375 -2.3125 0.9375q-0.9375 0 -1.640625 -0.421875q-0.71875 -0.421875 -1.140625 -1.109375q-0.4375 -0.703125 -0.625 -1.71875q-0.125 -0.640625 -0.203125 -2.40625q-0.078125 -1.78125 -0.375 -2.546875q-0.765625 -0.21875 -1.28125 -0.21875q-0.65625 0 -1.03125 0.46875q-0.515625 0.65625 -0.515625 1.921875q0 1.1875 0.53125 1.953125q0.515625 0.75 1.484375 1.09375l-0.171875 1.90625q-1.640625 -0.59375 -2.515625 -1.859375q-0.875 -1.265625 -0.875 -3.1875q0 -2.046875 0.984375 -3.25q0.71875 -0.90625 1.890625 -0.90625q0.890625 0 2.046875 0.25l2.75 0.609375q1.3125 0.296875 2.140625 0.296875q0.515625 0 1.5 -0.234375l0 1.90625q-0.546875 0.15625 -1.375 0.21875zm-4.234375 -0.6875q0.15625 0.390625 0.25 0.84375q0.078125 0.453125 0.171875 1.515625q0.140625 1.640625 0.375 2.328125q0.21875 0.671875 0.71875 1.015625q0.484375 0.34375 1.078125 0.34375q0.78125 0 1.296875 -0.546875q0.515625 -0.546875 0.515625 -1.5625q0 -0.9375 -0.5 -1.796875q-0.5 -0.859375 -1.375 -1.359375q-0.890625 -0.5 -2.53125 -0.78125zm5.609375 -3.7054443l-11.0625 -2.3125l0 -1.671875l2.265625 0.46875q-1.28125 -0.859375 -1.890625 -1.671875q-0.625 -0.8125 -0.625 -1.671875q0 -0.5625 0.40625 -1.390625l1.75 0.78125q-0.359375 0.484375 -0.359375 1.0625q0 1.0 1.109375 2.046875q1.109375 1.03125 3.96875 1.625l4.4375 0.9375l0 1.796875zm0 -7.102417l-15.265625 -3.1875l0 -1.890625l5.453125 1.140625q-0.828125 -0.90625 -1.15625 -1.625q-0.34375 -0.734375 -0.34375 -1.53125q0 -1.546875 1.15625 -2.578125q1.15625 -1.03125 3.359375 -1.03125q1.46875 0 2.6875 0.421875q1.21875 0.40625 2.046875 1.015625q0.828125 0.609375 1.328125 1.265625q0.5 0.65625 0.734375 1.34375q0.25 0.6875 0.25 1.328125q0 1.09375 -0.578125 1.9375q-0.578125 0.828125 -1.765625 1.296875l2.09375 0.4375l0 1.65625zm-4.546875 -2.796875l0.359375 0.015625q1.421875 0 2.15625 -0.671875q0.734375 -0.6875 0.734375 -1.703125q0 -0.984375 -0.6875 -1.8125q-0.6875 -0.828125 -2.15625 -1.359375q-1.46875 -0.53125 -2.71875 -0.53125q-1.390625 0 -2.15625 0.671875q-0.78125 0.671875 -0.78125 1.65625q0 1.03125 0.796875 1.890625q0.78125 0.84375 2.421875 1.421875q1.21875 0.421875 2.03125 0.421875zm0.34375 -9.408569q-3.234375 0 -5.359375 -1.90625q-1.75 -1.5625 -1.75 -4.125q0 -2.0 1.25 -3.21875q1.25 -1.21875 3.375 -1.21875q1.90625 0 3.546875 0.765625q1.640625 0.765625 2.515625 2.1875q0.875 1.421875 0.875 3.0q0 1.296875 -0.546875 2.359375q-0.5625 1.046875 -1.5625 1.609375q-1.015625 0.546875 -2.34375 0.546875zm-0.1875 -1.875q1.5625 0 2.375 -0.75q0.8125 -0.75 0.8125 -1.90625q0 -0.609375 -0.25 -1.203125q-0.25 -0.59375 -0.75 -1.09375q-0.5 -0.515625 -1.140625 -0.875q-0.640625 -0.359375 -1.375 -0.578125q-1.03125 -0.328125 -1.984375 -0.328125q-1.5 0 -2.328125 0.765625q-0.828125 0.75 -0.828125 1.890625q0 0.890625 0.421875 1.625q0.421875 0.71875 1.234375 1.3125q0.8125 0.578125 1.890625 0.859375q1.078125 0.28125 1.921875 0.28125zm4.390625 -9.642944l-11.0625 -2.3125l0 -1.71875l1.921875 0.40625q-1.125 -1.109375 -1.640625 -2.078125q-0.53125 -0.96875 -0.53125 -1.984375q0 -1.34375 0.734375 -2.09375q0.71875 -0.765625 1.9375 -0.765625q0.625 0 1.9375 0.265625l6.703125 1.40625l0 1.875l-7.015625 -1.46875q-1.015625 -0.21875 -1.5 -0.21875q-0.5625 0 -0.90625 0.390625q-0.34375 0.375 -0.34375 1.09375q0 1.453125 1.046875 2.578125q1.046875 1.125 3.578125 1.65625l5.140625 1.078125l0 1.890625zm-13.125 -14.549194l-2.140625 -0.4375l0 -1.875l2.140625 0.4375l0 1.875zm13.125 2.75l-11.0625 -2.3125l0 -1.875l11.0625 2.3125l0 1.875zm-4.03125 -12.441559l0.203125 -1.890625q2.0625 0.71875 3.078125 2.03125q1.0 1.296875 1.0 2.96875q0 1.796875 -1.15625 2.921875q-1.171875 1.109375 -3.265625 1.109375q-1.8125 0 -3.5625 -0.71875q-1.75 -0.71875 -2.65625 -2.046875q-0.921875 -1.34375 -0.921875 -3.0625q0 -1.78125 1.015625 -2.8125q1.0 -1.046875 2.65625 -1.046875l0.125 1.84375q-1.0625 0.015625 -1.65625 0.625q-0.59375 0.59375 -0.59375 1.5625q0 1.140625 0.71875 1.984375q0.71875 0.828125 2.1875 1.296875q1.46875 0.46875 2.8125 0.46875q1.421875 0 2.140625 -0.625q0.703125 -0.625 0.703125 -1.53125q0 -0.921875 -0.703125 -1.75q-0.703125 -0.84375 -2.125 -1.328125z" fill-rule="nonzero"/><path fill="#000000" d="m449.09943 419.4541l-15.265625 -8.65625l0 -2.40625l15.265625 -2.515625l0 1.984375l-4.390625 0.734375l0 6.171875l4.390625 2.453125l0 2.234375zm-5.96875 -5.5625l0 -5.046875l-3.828125 0.59375q-2.28125 0.34375 -3.796875 0.421875q1.3125 0.53125 3.109375 1.53125l4.515625 2.5zm5.96875 -9.7881775l-11.0625 -2.3125l0 -1.71875l1.921875 0.40625q-1.125 -1.109375 -1.640625 -2.078125q-0.53125 -0.96875 -0.53125 -1.984375q0 -1.34375 0.734375 -2.09375q0.71875 -0.765625 1.9375 -0.765625q0.625 0 1.9375 0.265625l6.703125 1.40625l0 1.875l-7.015625 -1.46875q-1.015625 -0.21875 -1.5 -0.21875q-0.5625 0 -0.90625 0.390625q-0.34375 0.375 -0.34375 1.09375q0 1.453125 1.046875 2.578125q1.046875 1.125 3.578125 1.65625l5.140625 1.078125l0 1.890625zm0 -11.861694l-15.265625 -3.1875l0 -1.890625l5.859375 1.21875q-1.015625 -1.046875 -1.453125 -1.953125q-0.453125 -0.90625 -0.453125 -1.875q0 -1.375 0.734375 -2.125q0.71875 -0.765625 1.90625 -0.765625q0.578125 0 2.140625 0.34375l6.53125 1.359375l0 1.875l-6.703125 -1.40625q-1.453125 -0.296875 -1.828125 -0.296875q-0.546875 0 -0.890625 0.375q-0.34375 0.375 -0.34375 1.078125q0 1.03125 0.546875 1.953125q0.53125 0.921875 1.46875 1.453125q0.921875 0.53125 3.0 0.96875l4.75 0.984375l0 1.890625zm4.265625 -11.158569l-1.765625 -0.109375q0.171875 -0.59375 0.171875 -1.140625q0 -0.578125 -0.265625 -0.921875q-0.34375 -0.46875 -1.296875 -1.0l-1.078125 -0.609375l-11.09375 1.84375l0 -1.859375l5.59375 -0.828125q1.65625 -0.25 3.3125 -0.421875l-8.90625 -4.953125l0 -1.96875l12.53125 7.046875q1.828125 1.03125 2.421875 1.828125q0.59375 0.78125 0.59375 1.8125q0 0.65625 -0.21875 1.28125zm-5.875 -18.835938q1.859375 1.625 1.859375 3.375q0 1.578125 -1.15625 2.625q-1.171875 1.046875 -3.375 1.046875q-2.015625 0 -3.6875 -0.828125q-1.671875 -0.828125 -2.5 -2.0625q-0.84375 -1.25 -0.84375 -2.5q0 -2.0625 1.984375 -3.125l-5.9375 -1.234375l0 -1.875l15.265625 3.171875l0 1.75l-1.609375 -0.34375zm-3.03125 5.171875q1.15625 0 1.828125 -0.21875q0.671875 -0.234375 1.109375 -0.78125q0.4375 -0.5625 0.4375 -1.328125q0 -1.28125 -1.328125 -2.328125q-1.765625 -1.390625 -4.375 -1.390625q-1.3125 0 -2.046875 0.6875q-0.75 0.6875 -0.75 1.71875q0 0.6875 0.3125 1.25q0.296875 0.546875 1.03125 1.09375q0.71875 0.546875 1.828125 0.921875q1.109375 0.375 1.953125 0.375zm4.640625 -9.564819l-11.0625 -2.3125l0 -1.671875l2.265625 0.46875q-1.28125 -0.859375 -1.890625 -1.671875q-0.625 -0.8125 -0.625 -1.671875q0 -0.5625 0.40625 -1.390625l1.75 0.78125q-0.359375 0.484375 -0.359375 1.0625q0 1.0 1.109375 2.046875q1.109375 1.03125 3.96875 1.625l4.4375 0.9375l0 1.796875zm-1.375 -14.5711975q0.84375 0.984375 1.234375 1.890625q0.390625 0.90625 0.390625 1.9375q0 1.53125 -0.890625 2.46875q-0.90625 0.9375 -2.3125 0.9375q-0.9375 0 -1.640625 -0.421875q-0.71875 -0.421875 -1.140625 -1.109375q-0.4375 -0.703125 -0.625 -1.71875q-0.125 -0.640625 -0.203125 -2.40625q-0.078125 -1.78125 -0.375 -2.546875q-0.765625 -0.21875 -1.28125 -0.21875q-0.65625 0 -1.03125 0.46875q-0.515625 0.65625 -0.515625 1.921875q0 1.1875 0.53125 1.953125q0.515625 0.75 1.484375 1.09375l-0.171875 1.90625q-1.640625 -0.59375 -2.515625 -1.859375q-0.875 -1.265625 -0.875 -3.1875q0 -2.046875 0.984375 -3.25q0.71875 -0.90625 1.890625 -0.90625q0.890625 0 2.046875 0.25l2.75 0.609375q1.3125 0.296875 2.140625 0.296875q0.515625 0 1.5 -0.234375l0 1.90625q-0.546875 0.15625 -1.375 0.21875zm-4.234375 -0.6875q0.15625 0.390625 0.25 0.84375q0.078125 0.453125 0.171875 1.515625q0.140625 1.640625 0.375 2.328125q0.21875 0.671875 0.71875 1.015625q0.484375 0.34375 1.078125 0.34375q0.78125 0 1.296875 -0.546875q0.515625 -0.546875 0.515625 -1.5625q0 -0.9375 -0.5 -1.796875q-0.5 -0.859375 -1.375 -1.359375q-0.890625 -0.5 -2.53125 -0.78125zm1.828125 -3.8929443l-0.109375 -1.875q0.8125 0 1.390625 -0.25q0.5625 -0.25 0.9375 -0.921875q0.359375 -0.671875 0.359375 -1.578125q0 -1.25 -0.5 -1.875q-0.5 -0.625 -1.1875 -0.625q-0.484375 0 -0.921875 0.375q-0.4375 0.390625 -1.078125 1.890625q-0.640625 1.484375 -0.90625 1.90625q-0.421875 0.703125 -1.0 1.0625q-0.578125 0.34375 -1.328125 0.34375q-1.3125 0 -2.25 -1.03125q-0.9375 -1.046875 -0.9375 -2.921875q0 -2.09375 0.96875 -3.171875q0.953125 -1.09375 2.53125 -1.125l0.125 1.828125q-1.0 0.046875 -1.578125 0.71875q-0.59375 0.65625 -0.59375 1.875q0 0.984375 0.453125 1.53125q0.453125 0.53125 0.96875 0.53125q0.515625 0 0.921875 -0.46875q0.265625 -0.3125 0.828125 -1.609375q0.9375 -2.171875 1.484375 -2.734375q0.859375 -0.890625 2.09375 -0.890625q0.828125 0 1.625 0.515625q0.78125 0.5 1.265625 1.53125q0.46875 1.03125 0.46875 2.4375q0 1.921875 -0.953125 3.265625q-0.9375 1.34375 -3.078125 1.265625zm0.015625 -18.601562l0.1875 -1.84375q1.375 0.40625 2.609375 1.828125q1.21875 1.421875 1.21875 3.390625q0 1.21875 -0.5625 2.25q-0.578125 1.03125 -1.65625 1.5625q-1.078125 0.53125 -2.46875 0.53125q-1.8125 0 -3.515625 -0.828125q-1.703125 -0.84375 -2.53125 -2.171875q-0.828125 -1.34375 -0.828125 -2.890625q0 -1.984375 1.234375 -3.15625q1.21875 -1.1875 3.34375 -1.1875q0.8125 0 1.671875 0.15625l0 8.140625q0.328125 0.03125 0.578125 0.03125q1.5625 0 2.375 -0.703125q0.8125 -0.71875 0.8125 -1.75q0 -0.96875 -0.625 -1.90625q-0.640625 -0.9375 -1.84375 -1.453125zm-2.734375 5.46875l0 -6.203125q-0.296875 -0.015625 -0.421875 -0.015625q-1.40625 0 -2.15625 0.71875q-0.765625 0.703125 -0.765625 1.8125q0 1.21875 0.84375 2.21875q0.828125 0.984375 2.5 1.46875z" fill-rule="nonzero"/><g filter="url(#shadowFilter-p.1)"><use xlink:href="#p.1" transform="matrix(1.0 0.0 0.0 1.0 2.0 0.0)"/></g><defs><filter id="shadowFilter-p.1" filterUnits="userSpaceOnUse"><feGaussianBlur in="SourceAlpha" stdDeviation="2.0" result="blur"/><feComponentTransfer in="blur" color-interpolation-filters="sRGB"><feFuncR type="linear" slope="0" intercept="0.0"/><feFuncG type="linear" slope="0" intercept="0.0"/><feFuncB type="linear" slope="0" intercept="0.0"/><feFuncA type="linear" slope="0.5" intercept="0"/></feComponentTransfer></filter></defs><g id="p.1"><path fill="#cfe2f3" d="m178.8189 510.09286l0 0c0 -15.089996 12.232849 -27.322845 27.322845 -27.322845l0 0c7.24646 0 14.196136 2.878662 19.32016 8.002686c5.1240234 5.1240234 8.00267 12.0737 8.00267 19.32016l0 0c0 15.089996 -12.232849 27.322845 -27.32283 27.322845l0 0c-15.089996 0 -27.322845 -12.232849 -27.322845 -27.322845z" fill-rule="evenodd"/><path stroke="#000000" stroke-width="1.0" stroke-linejoin="round" stroke-linecap="butt" d="m178.8189 510.09286l0 0c0 -15.089996 12.232849 -27.322845 27.322845 -27.322845l0 0c7.24646 0 14.196136 2.878662 19.32016 8.002686c5.1240234 5.1240234 8.00267 12.0737 8.00267 19.32016l0 0c0 15.089996 -12.232849 27.322845 -27.32283 27.322845l0 0c-15.089996 0 -27.322845 -12.232849 -27.322845 -27.322845z" fill-rule="evenodd"/></g><path fill="#000000" fill-opacity="0.0" d="m403.1076 483.5538l-270.77167 0" fill-rule="evenodd"/><path stroke="#000000" stroke-width="1.0" stroke-linejoin="round" stroke-linecap="butt" d="m397.1076 483.5538l-258.77167 0" fill-rule="evenodd"/><path fill="#000000" stroke="#000000" stroke-width="1.0" stroke-linecap="butt" d="m397.1076 485.20554l4.5381165 -1.6517334l-4.5381165 -1.6517334z" fill-rule="evenodd"/><path fill="#000000" stroke="#000000" stroke-width="1.0" stroke-linecap="butt" d="m138.33595 481.90207l-4.538086 1.6517334l4.538086 1.6517334z" fill-rule="evenodd"/><path fill="#000000" fill-opacity="0.0" d="m65.485565 497.4147l68.566925 0l0 80.12601l-68.566925 0z" fill-rule="evenodd"/><path fill="#000000" d="m97.20219 540.7758l4.484375 1.421875q-1.03125 3.75 -3.4375 5.578125q-2.390625 1.8125 -6.078125 1.8125q-4.5625 0 -7.5 -3.109375q-2.9375 -3.125 -2.9375 -8.53125q0 -5.71875 2.953125 -8.875q2.953125 -3.171875 7.765625 -3.171875q4.203125 0 6.828125 2.484375q1.5625 1.46875 2.34375 4.21875l-4.578125 1.09375q-0.40625 -1.78125 -1.703125 -2.8125q-1.28125 -1.03125 -3.125 -1.03125q-2.546875 0 -4.140625 1.828125q-1.578125 1.828125 -1.578125 5.921875q0 4.34375 1.5625 6.1875q1.5625 1.84375 4.0625 1.84375q1.84375 0 3.171875 -1.171875q1.328125 -1.171875 1.90625 -3.6875zm8.421875 8.421875l0 -22.90625l4.390625 0l0 22.90625l-4.390625 0z" fill-rule="nonzero"/><path fill="#000000" d="m113.40531 533.11957l0 -2.921875l5.75 0l0 2.921875l-5.75 0z" fill-rule="nonzero"/><path fill="#000000" fill-opacity="0.0" d="m134.05249 537.47766l203.87402 0" fill-rule="evenodd"/><path stroke="#000000" stroke-width="1.0" stroke-linejoin="round" stroke-linecap="butt" d="m140.05249 537.47766l191.87402 0" fill-rule="evenodd"/><path fill="#000000" stroke="#000000" stroke-width="1.0" stroke-linecap="butt" d="m140.05249 535.8259l-4.538101 1.6517334l4.538101 1.6517334z" fill-rule="evenodd"/><path fill="#000000" stroke="#000000" stroke-width="1.0" stroke-linecap="butt" d="m331.9265 539.1294l4.538086 -1.6517334l-4.538086 -1.6517334z" fill-rule="evenodd"/><path fill="#000000" fill-opacity="0.0" d="m19.10761 449.5538l118.99212 0l0 68.00003l-118.99212 0z" fill-rule="evenodd"/><path fill="#000000" d="m37.314445 495.2738l0 -22.90625l4.625 0l0 9.015625l9.0625 0l0 -9.015625l4.625 0l0 22.90625l-4.625 0l0 -10.015625l-9.0625 0l0 10.015625l-4.625 0z" fill-rule="nonzero"/><path fill="#000000" d="m74.345695 487.2113l4.296875 1.359375q-0.984375 3.59375 -3.28125 5.34375q-2.296875 1.734375 -5.828125 1.734375q-4.375 0 -7.1875 -2.984375q-2.8125 -2.984375 -2.8125 -8.171875q0 -5.46875 2.828125 -8.5q2.828125 -3.03125 7.4375 -3.03125q4.03125 0 6.546875 2.375q1.5 1.40625 2.234375 4.046875l-4.375 1.046875q-0.390625 -1.71875 -1.625 -2.703125q-1.234375 -0.984375 -3.0 -0.984375q-2.4375 0 -3.96875 1.75q-1.515625 1.75 -1.515625 5.671875q0 4.15625 1.5 5.9375q1.5 1.765625 3.890625 1.765625q1.765625 0 3.03125 -1.125q1.28125 -1.125 1.828125 -3.53125zm7.201462 -2.78125q0 -3.34375 1.0 -5.625q0.75 -1.671875 2.046875 -3.0q1.296875 -1.34375 2.84375 -1.984375q2.046875 -0.859375 4.71875 -0.859375q4.859375 0 7.765625 3.015625q2.921875 3.0 2.921875 8.359375q0 5.3125 -2.890625 8.3125q-2.890625 3.0 -7.734375 3.0q-4.890625 0 -7.78125 -2.984375q-2.890625 -2.984375 -2.890625 -8.234375zm4.5625 -0.140625q0 3.71875 1.71875 5.65625q1.734375 1.921875 4.375 1.921875q2.65625 0 4.34375 -1.90625q1.703125 -1.921875 1.703125 -5.734375q0 -3.765625 -1.65625 -5.625q-1.640625 -1.859375 -4.390625 -1.859375q-2.734375 0 -4.421875 1.875q-1.671875 1.875 -1.671875 5.671875z" fill-rule="nonzero"/><path fill="#000000" d="m104.83007 502.8988l2.71875 -0.34375q0.125 1.046875 0.6875 1.59375q0.578125 0.546875 1.390625 0.546875q0.859375 0 1.453125 -0.65625q0.59375 -0.65625 0.59375 -1.78125q0 -1.046875 -0.578125 -1.671875q-0.5625 -0.625 -1.375 -0.625q-0.53125 0 -1.28125 0.21875l0.3125 -2.28125q1.125 0.015625 1.71875 -0.5q0.609375 -0.53125 0.609375 -1.390625q0 -0.734375 -0.4375 -1.171875q-0.4375 -0.453125 -1.171875 -0.453125q-0.71875 0 -1.234375 0.5q-0.5 0.5 -0.609375 1.46875l-2.578125 -0.453125q0.265625 -1.3125 0.796875 -2.109375q0.546875 -0.796875 1.515625 -1.25q0.984375 -0.453125 2.1875 -0.453125q2.0625 0 3.3125 1.3125q1.03125 1.078125 1.03125 2.4375q0 1.921875 -2.109375 3.078125q1.265625 0.265625 2.015625 1.203125q0.75 0.9375 0.75 2.265625q0 1.921875 -1.40625 3.28125q-1.40625 1.359375 -3.5 1.359375q-1.984375 0 -3.296875 -1.140625q-1.296875 -1.140625 -1.515625 -2.984375z" fill-rule="nonzero"/><path fill="#000000" d="m116.58706 479.86755l0 -2.796875l5.5 0l0 2.796875l-5.5 0z" fill-rule="nonzero"/><path fill="#000000" fill-opacity="0.0" d="m337.48557 497.4147l68.566925 0l0 80.12601l-68.566925 0z" fill-rule="evenodd"/><path fill="#000000" d="m369.20218 540.7758l4.484375 1.421875q-1.03125 3.75 -3.4375 5.578125q-2.390625 1.8125 -6.078125 1.8125q-4.5625 0 -7.5 -3.109375q-2.9375 -3.125 -2.9375 -8.53125q0 -5.71875 2.953125 -8.875q2.953125 -3.171875 7.765625 -3.171875q4.203125 0 6.828125 2.484375q1.5625 1.46875 2.34375 4.21875l-4.578125 1.09375q-0.40625 -1.78125 -1.703125 -2.8125q-1.28125 -1.03125 -3.125 -1.03125q-2.546875 0 -4.140625 1.828125q-1.578125 1.828125 -1.578125 5.921875q0 4.34375 1.5625 6.1875q1.5625 1.84375 4.0625 1.84375q1.84375 0 3.171875 -1.171875q1.328125 -1.171875 1.90625 -3.6875zm8.421875 8.421875l0 -22.90625l4.390625 0l0 22.90625l-4.390625 0z" fill-rule="nonzero"/><path fill="#000000" d="m385.4053 533.11957l0 -2.921875l5.75 0l0 2.921875l-5.75 0z" fill-rule="nonzero"/><path fill="#000000" fill-opacity="0.0" d="m364.16272 85.615166l232.28345 0l0 80.125984l-232.28345 0z" fill-rule="evenodd"/><path fill="#000000" d="m379.29547 139.01816l0 -26.71875l19.8125 0l0 4.515625l-14.421875 0l0 5.921875l13.421875 0l0 4.5l-13.421875 0l0 7.28125l14.921875 0l0 4.5l-20.3125 0zm29.756927 0l-5.125 0l0 -19.359375l4.765625 0l0 2.75q1.21875 -1.953125 2.1875 -2.5625q0.984375 -0.625 2.21875 -0.625q1.75 0 3.375 0.96875l-1.578125 4.46875q-1.296875 -0.84375 -2.40625 -0.84375q-1.078125 0 -1.828125 0.59375q-0.75 0.59375 -1.1875 2.140625q-0.421875 1.546875 -0.421875 6.484375l0 5.984375zm7.198517 -19.359375l5.453125 0l4.625 13.75l4.53125 -13.75l5.296875 0l-6.828125 18.625l-1.21875 3.375q-0.6875 1.703125 -1.296875 2.59375q-0.609375 0.890625 -1.40625 1.4375q-0.78125 0.5625 -1.9375 0.875q-1.15625 0.3125 -2.625 0.3125q-1.46875 0 -2.890625 -0.3125l-0.453125 -4.015625q1.203125 0.234375 2.15625 0.234375q1.796875 0 2.640625 -1.046875q0.859375 -1.046875 1.328125 -2.671875l-7.375 -19.40625zm32.07263 0l0 4.078125l-3.5 0l0 7.8125q0 2.359375 0.09375 2.765625q0.09375 0.390625 0.453125 0.640625q0.359375 0.25 0.875 0.25q0.703125 0 2.046875 -0.484375l0.4375 3.96875q-1.78125 0.765625 -4.046875 0.765625q-1.375 0 -2.5 -0.453125q-1.109375 -0.46875 -1.625 -1.203125q-0.515625 -0.75 -0.71875 -2.0q-0.15625 -0.90625 -0.15625 -3.609375l0 -8.453125l-2.359375 0l0 -4.078125l2.359375 0l0 -3.84375l5.140625 -2.984375l0 6.828125l3.5 0zm8.649292 -7.359375l0 9.828125q2.484375 -2.90625 5.921875 -2.90625q1.765625 0 3.1875 0.65625q1.421875 0.65625 2.140625 1.6875q0.71875 1.015625 0.984375 2.25q0.265625 1.234375 0.265625 3.84375l0 11.359375l-5.109375 0l0 -10.21875q0 -3.046875 -0.296875 -3.859375q-0.296875 -0.828125 -1.03125 -1.3125q-0.734375 -0.484375 -1.84375 -0.484375q-1.28125 0 -2.28125 0.625q-1.0 0.609375 -1.46875 1.859375q-0.46875 1.25 -0.46875 3.6875l0 9.703125l-5.125 0l0 -26.71875l5.125 0zm22.598389 26.71875l-5.125 0l0 -19.359375l4.765625 0l0 2.75q1.21875 -1.953125 2.1875 -2.5625q0.984375 -0.625 2.21875 -0.625q1.75 0 3.375 0.96875l-1.578125 4.46875q-1.296875 -0.84375 -2.40625 -0.84375q-1.078125 0 -1.828125 0.59375q-0.75 0.59375 -1.1875 2.140625q-0.421875 1.546875 -0.421875 6.484375l0 5.984375zm8.448517 -9.953125q0 -2.546875 1.25 -4.9375q1.265625 -2.390625 3.5625 -3.640625q2.3125 -1.265625 5.15625 -1.265625q4.390625 0 7.1875 2.859375q2.8125 2.84375 2.8125 7.203125q0 4.390625 -2.84375 7.28125q-2.828125 2.890625 -7.125 2.890625q-2.65625 0 -5.078125 -1.203125q-2.40625 -1.203125 -3.671875 -3.515625q-1.25 -2.328125 -1.25 -5.671875zm5.25 0.28125q0 2.875 1.359375 4.40625q1.375 1.53125 3.375 1.53125q2.0 0 3.359375 -1.53125q1.359375 -1.53125 1.359375 -4.453125q0 -2.84375 -1.359375 -4.375q-1.359375 -1.53125 -3.359375 -1.53125q-2.0 0 -3.375 1.53125q-1.359375 1.53125 -1.359375 4.421875zm35.613983 -3.96875l-5.046875 0.921875q-0.265625 -1.515625 -1.171875 -2.28125q-0.890625 -0.765625 -2.328125 -0.765625q-1.921875 0 -3.0625 1.328125q-1.140625 1.3125 -1.140625 4.40625q0 3.453125 1.15625 4.875q1.15625 1.421875 3.109375 1.421875q1.46875 0 2.390625 -0.828125q0.9375 -0.828125 1.3125 -2.859375l5.03125 0.859375q-0.78125 3.46875 -3.015625 5.234375q-2.21875 1.765625 -5.953125 1.765625q-4.25 0 -6.78125 -2.671875q-2.5155945 -2.6875 -2.5155945 -7.421875q0 -4.796875 2.5312195 -7.46875q2.53125 -2.671875 6.859375 -2.671875q3.53125 0 5.609375 1.53125q2.09375 1.515625 3.015625 4.625zm1.4476318 -5.71875l5.453125 0l4.625 13.75l4.53125 -13.75l5.296875 0l-6.828125 18.625l-1.21875 3.375q-0.6875 1.703125 -1.296875 2.59375q-0.609375 0.890625 -1.40625 1.4375q-0.78125 0.5625 -1.9375 0.875q-1.15625 0.3125 -2.625 0.3125q-1.46875 0 -2.890625 -0.3125l-0.453125 -4.015625q1.203125 0.234375 2.15625 0.234375q1.796875 0 2.640625 -1.046875q0.859375 -1.046875 1.328125 -2.671875l-7.375 -19.40625zm32.07263 0l0 4.078125l-3.5 0l0 7.8125q0 2.359375 0.09375 2.765625q0.09375 0.390625 0.453125 0.640625q0.359375 0.25 0.875 0.25q0.703125 0 2.046875 -0.484375l0.4375 3.96875q-1.78125 0.765625 -4.046875 0.765625q-1.375 0 -2.5 -0.453125q-1.109375 -0.46875 -1.625 -1.203125q-0.515625 -0.75 -0.71875 -2.0q-0.15625 -0.90625 -0.15625 -3.609375l0 -8.453125l-2.359375 0l0 -4.078125l2.359375 0l0 -3.84375l5.140625 -2.984375l0 6.828125l3.5 0zm14.758728 13.203125l5.09375 0.859375q-0.96875 2.796875 -3.09375 4.265625q-2.125 1.46875 -5.3125 1.46875q-5.0625 0 -7.484375 -3.296875q-1.90625 -2.640625 -1.90625 -6.671875q0 -4.8125 2.515625 -7.53125q2.515625 -2.734375 6.359375 -2.734375q4.3125 0 6.8125 2.859375q2.5 2.84375 2.390625 8.734375l-12.828125 0q0.046875 2.28125 1.234375 3.546875q1.1875 1.265625 2.953125 1.265625q1.203125 0 2.015625 -0.65625q0.828125 -0.65625 1.25 -2.109375zm0.296875 -5.1875q-0.0625 -2.21875 -1.15625 -3.375q-1.09375 -1.15625 -2.65625 -1.15625q-1.6875 0 -2.78125 1.21875q-1.09375 1.21875 -1.0625 3.3125l7.65625 0z" fill-rule="nonzero"/></g></svg>