<?xml version="1.0" encoding="UTF-8" standalone="no"?>
<svg
   xmlns:dc="http://purl.org/dc/elements/1.1/"
   xmlns:cc="http://creativecommons.org/ns#"
   xmlns:rdf="http://www.w3.org/1999/02/22-rdf-syntax-ns#"
   xmlns:svg="http://www.w3.org/2000/svg"
   xmlns="http://www.w3.org/2000/svg"
   xmlns:sodipodi="http://sodipodi.sourceforge.net/DTD/sodipodi-0.dtd"
   xmlns:inkscape="http://www.inkscape.org/namespaces/inkscape"
   version="1.1"
   x="0"
   y="0"
   width="526"
   height="440"
   viewBox="0, 0, 526, 440"
   id="svg83"
   sodipodi:docname="lungs.svg"
   inkscape:version="0.92.4 (5da689c313, 2019-01-14)">
  <metadata
     id="metadata89">
    <rdf:RDF>
      <cc:Work
         rdf:about="">
        <dc:format>image/svg+xml</dc:format>
        <dc:type
           rdf:resource="http://purl.org/dc/dcmitype/StillImage" />
      </cc:Work>
    </rdf:RDF>
  </metadata>
  <defs
     id="defs87" />
  <sodipodi:namedview
     pagecolor="#ffffff"
     bordercolor="#666666"
     borderopacity="1"
     objecttolerance="10"
     gridtolerance="10"
     guidetolerance="10"
     inkscape:pageopacity="0"
     inkscape:pageshadow="2"
     inkscape:window-width="1920"
     inkscape:window-height="1013"
     id="namedview85"
     showgrid="false"
     inkscape:zoom="1.0727273"
     inkscape:cx="-28.25562"
     inkscape:cy="184.88741"
     inkscape:window-x="-9"
     inkscape:window-y="-9"
     inkscape:window-maximized="1"
     inkscape:current-layer="Layer_1" />
  <g
     id="Layer_1">
    <path
       d="M372.787,70.843 L372.552,70.871 L372.536,69.62 L372.787,70.843 z M373.78,75.684 L372.613,75.811 L372.582,73.34 L373.284,73.265 L373.78,75.684 z M374.773,80.528 L372.676,80.753 L372.645,78.281 L374.277,78.105 L374.773,80.528 z M375.271,82.95 L375.764,85.369 L372.738,85.695 L372.707,83.225 L375.271,82.95 z M376.761,90.211 L372.799,90.638 L372.768,88.167 L376.263,87.791 L376.761,90.211 z M297.979,115.866 L317.357,143.917 L317.506,143.905 C319.514,143.889 321.949,143.872 324.743,143.852 C327.41,143.98 330.409,144.099 333.656,144.315 C334.793,144.426 335.979,144.523 337.181,144.625 L336.711,144.441 L352.751,108.971 L331.282,65.453 L319.931,60.572 L328.277,63.039 L338.582,44.488 L332.717,64.857 L341.391,78.175 L352.665,57.347 L344.35,82.72 L357.975,103.646 L372.853,94.983 L372.829,93.109 L376.812,92.68 L398.472,80.068 C390.99,73.087 383.141,66.27 374.903,59.625 C357.685,45.73 343.639,38.685 333.155,38.685 C318.232,38.685 311.792,53.316 305.479,70.993 C303.2,77.37 300.416,93.803 297.979,115.866 M429.503,134.94 L429.697,134.592 L431.122,135.611 L429.503,134.94 z M427.213,133.994 L424.927,133.047 L425.669,131.711 L427.683,133.151 L427.213,133.994 z M422.639,132.103 L420.35,131.156 L421.64,128.828 L423.655,130.27 L422.639,132.103 z M418.063,130.209 L415.773,129.261 L417.613,125.947 L419.627,127.387 L418.063,130.209 z M398.548,80.14 L358.592,109.474 L346.673,145.606 C349.523,145.939 352.446,146.29 355.458,146.737 L355.16,146.378 L375.878,130.751 L376.11,106.934 L376.709,106.558 L391.923,97.039 L379.3,108.367 L382.707,127.647 L410.614,125.511 L413.187,123.779 L413.584,123.065 L413.905,123.296 L425.353,115.586 L414.993,124.076 L415.598,124.506 L413.485,128.314 L411.196,127.369 L411.383,127.034 L411.263,127.133 L411.004,127.176 L381.577,132.236 L364.27,148.042 C365.45,148.228 366.623,148.41 367.816,148.603 C371.979,149.236 376.178,150.04 380.386,150.757 C387.738,152.096 395.062,153.549 402.016,155.015 L443.637,142.197 L409.286,156.581 C415.464,157.938 421.225,159.277 426.275,160.515 C432.484,162.038 437.626,163.428 441.215,164.437 C444.782,165.507 446.822,166.119 446.822,166.119 C446.822,166.119 444.747,165.658 441.112,164.848 C437.466,164.101 432.25,163.09 425.961,162.021 C416.232,160.37 403.948,158.541 391.072,156.951 C393.665,158.75 396.735,160.883 400.027,163.168 L418.129,176.065 C418.129,176.065 411.362,172.647 403.354,168.6 L399.602,184.936 L398.973,166.385 C398.592,166.192 398.209,165.998 397.826,165.805 C389.665,161.8 380.14,157.066 376.614,155.312 C373.419,154.982 370.238,154.645 367.088,154.395 C362.933,154.028 358.847,153.681 354.892,153.445 C350.938,153.145 347.121,152.995 343.504,152.838 C339.888,152.643 336.487,152.693 333.345,152.613 C330.218,152.63 327.364,152.728 324.847,152.783 C324.4,152.818 323.975,152.849 323.55,152.881 L348.355,188.789 L365.527,181.049 L366,160.61 L370.023,179.023 L387.842,170.99 L352.159,194.295 L354.766,198.067 L385.185,200.336 L397.146,189.775 L388.935,199.549 L404.579,211.358 L385.279,202.858 L359.408,204.789 L364.115,211.603 L374.309,218.819 L410.226,221.911 L439.81,196.405 L427.438,209.475 L460.116,213.627 C460.437,213.271 460.758,212.913 461.072,212.549 C462.773,210.514 464.399,208.374 465.783,206.092 C468.624,201.584 470.675,196.647 471.795,191.928 C472.941,187.214 473.14,182.699 472.621,179.123 C472.408,177.385 471.988,175.891 471.54,174.641 C470.914,173.449 470.285,172.258 469.646,171.072 C469.389,170.726 469.282,170.591 468.801,170.105 C468.339,169.641 468.096,169.393 468.096,169.393 L468.519,169.017 C450.789,136.729 427.495,107.168 398.548,80.14 M381.763,349.79 L379.297,348.803 L379.862,346.38 L383.026,347.646 L381.763,349.79 z M379.235,354.08 L378.172,353.655 L378.734,351.231 L380.498,351.933 L379.235,354.08 z M377.32,357.326 L377.608,356.077 L377.971,356.221 L377.32,357.326 z M353.753,363.881 L351.075,361.198 L352.683,359.327 L355.623,362.273 L353.753,363.881 z M350.001,367.086 L347.857,364.941 L349.466,363.069 L351.879,365.485 L350.001,367.086 z M346.253,370.297 L344.641,368.683 L346.249,366.811 L348.127,368.694 L346.253,370.297 z M342.505,373.507 L341.425,372.425 L343.033,370.554 L344.379,371.902 L342.505,373.507 z M338.756,376.714 L338.211,376.168 L339.816,374.296 L340.63,375.111 L338.756,376.714 z M335.008,379.924 L334.992,379.911 L336.6,378.039 L336.882,378.322 L335.008,379.924 z M506.568,326.585 C504.19,330.231 501.31,333.776 498.155,337.233 C491.822,344.142 484.057,350.393 475.757,355.629 C471.607,358.255 467.31,360.615 463.003,362.746 C460.858,363.831 458.664,364.76 456.535,365.757 C454.361,366.648 452.228,367.562 450.104,368.384 C445.846,370.01 441.678,371.415 437.695,372.639 C435.694,373.211 433.751,373.772 431.867,374.314 C429.969,374.788 428.136,375.246 426.378,375.686 C419.318,377.357 413.375,378.4 409.208,379.059 C405.036,379.665 402.652,380.009 402.652,380.009 C402.652,380.009 405.009,379.513 409.131,378.645 C413.241,377.723 419.088,376.305 425.972,374.201 C427.687,373.657 429.469,373.087 431.315,372.495 C433.141,371.845 435.026,371.168 436.964,370.475 C440.815,369.018 444.822,367.372 448.894,365.516 C450.922,364.577 452.952,363.551 455.015,362.548 C457.032,361.441 459.109,360.398 461.122,359.209 C465.173,356.875 469.179,354.331 473,351.554 C480.647,346.016 487.615,339.609 493.069,332.831 C495.786,329.437 498.218,326.021 500.147,322.597 C502.094,319.185 503.643,315.837 504.806,312.684 C505.917,309.513 506.642,306.56 507.088,303.945 C507.426,301.326 507.631,299.052 507.511,297.224 C507.515,296.275 507.416,295.553 507.345,294.928 C507.316,294.611 507.287,294.32 507.264,294.052 C507.198,293.715 507.141,293.407 507.09,293.131 C506.879,292.024 506.765,291.433 506.765,291.433 L507.69,291.287 C502.992,255.186 493.554,221.641 479.312,190.49 C478.996,191.62 478.644,192.75 478.233,193.878 C476.341,199.158 473.433,204.369 469.803,208.93 C468.025,211.239 466.021,213.349 463.97,215.31 C461.887,217.24 459.758,219.04 457.555,220.571 C453.195,223.701 448.772,226.011 444.881,227.662 C442.959,228.545 441.105,229.127 439.512,229.739 C437.874,230.236 436.464,230.706 435.281,231.03 C432.913,231.63 431.561,231.976 431.561,231.976 C431.561,231.976 432.864,231.486 435.146,230.627 C436.278,230.18 437.623,229.559 439.174,228.894 C440.677,228.118 442.421,227.353 444.199,226.283 C447.805,224.259 451.817,221.558 455.608,218.141 C457.049,216.884 458.427,215.495 459.757,214.033 L423.684,213.44 L414.297,223.354 L446.822,245.685 L409.63,226.105 L409.68,226.026 L384.527,226.053 L398.06,235.632 L430.666,248.508 L396.538,239.155 L396.446,239.13 L396.143,238.969 L392.011,236.811 L397.146,265.038 L386.748,234.062 L366.639,223.554 L366.58,250.179 L392.244,273.381 L434.499,275.696 L455.164,248.505 L440.084,276.001 L472.154,277.76 L439.009,277.961 L438.588,278.731 L451.005,295.009 L431.827,278.004 L394.12,278.233 L397.146,296.758 L389.232,277.335 L366.56,259.394 L366.536,269.667 L395.983,303.651 L434.66,311.925 L461.929,300.591 L440.13,313.095 L464.8,318.374 L400.848,309.264 L419.932,331.287 L451.498,347.882 L422.418,335.115 L429.817,365.625 L416.637,331.539 L366.514,280.069 L366.422,321.075 L398.235,357.326 L384.309,345.473 L384.292,345.5 L380.424,343.957 L380.771,342.461 L364.089,328.264 L357.831,355.449 L369.45,376.678 L358.201,360.071 L357.498,360.67 L354.289,357.456 L355.487,356.065 L355.405,355.945 L357.269,329.596 L334.276,349.886 L357.628,320.176 L355.695,260.5 L349.61,266.334 L349.006,266.91 L348.776,266.947 L335.658,290.664 L343.498,267.789 L316.957,272.026 L346.695,262.968 L355.417,251.942 L354.367,219.536 L338.54,200.872 L324.09,211.568 L323.409,212.074 L323.207,212.05 L316.105,234.037 L318.696,211.548 L299.524,209.409 L322.121,208.432 L334.404,195.994 L294.927,149.441 C290.312,212.291 289.94,295.8 305.489,340.171 C320.761,383.751 339.847,386.739 377.871,392.691 C399.095,396.013 425.51,400.148 458.821,412.854 C462.287,414.178 465.874,415.847 469.344,417.459 C476.836,420.945 484.583,424.549 490.825,424.549 C494.838,424.549 507.047,424.549 509.973,381.919 C511.439,360.562 511.584,339.961 510.4,320.088 C509.265,322.243 507.998,324.416 506.568,326.585 M199.021,195.991 L231.622,157.549 C232.701,173.986 233.47,191.599 233.739,209.401 L211.303,208.432 L199.021,195.991 z M103.307,134.89 L103.444,135.138 L102.302,135.611 L103.307,134.89 z M107.744,131.717 L108.484,133.053 L105.965,134.095 L105.526,133.305 L107.744,131.717 z M112.179,128.544 L113.524,130.969 L111.003,132.012 L109.962,130.131 L112.179,128.544 z M116.616,125.373 L118.564,128.885 L116.044,129.926 L114.397,126.96 L116.616,125.373 z M156.967,88.73 L160.644,89.125 L160.611,91.735 L156.445,91.285 L156.967,88.73 z M158.018,83.616 L160.709,83.906 L160.676,86.515 L157.492,86.171 L158.018,83.616 z M159.066,78.502 L160.773,78.686 L160.743,81.296 L158.542,81.058 L159.066,78.502 z M160.114,73.387 L160.838,73.465 L160.806,76.076 L159.589,75.945 L160.114,73.387 z M160.886,69.62 L160.871,70.856 L160.638,70.83 L160.886,69.62 z M153.295,344.91 L153.832,347.038 L150.391,348.325 L149.398,346.369 L153.295,344.91 z M154.906,351.29 L152.375,352.235 L151.382,350.281 L154.369,349.162 L154.906,351.29 z M155.98,355.541 L154.356,356.148 L153.365,354.192 L155.443,353.417 L155.98,355.541 z M157.05,359.797 L156.341,360.062 L155.348,358.106 L156.515,357.669 L157.05,359.797 z M157.589,361.921 L157.891,363.124 L157.333,362.018 L157.589,361.921 z M179.888,358.459 L181.464,360.38 L178.854,362.994 L176.931,361.42 L179.888,358.459 z M184.614,364.225 L182.704,366.138 L180.779,364.566 L183.039,362.303 L184.614,364.225 z M186.191,366.144 L187.768,368.066 L186.55,369.283 L184.627,367.711 L186.191,366.144 z M189.343,369.988 L190.921,371.907 L190.4,372.431 L188.476,370.859 L189.343,369.988 z M192.497,373.829 L193.28,374.784 L192.323,374.003 L192.497,373.829 z M148.113,392.691 C186.137,386.739 205.224,383.751 220.492,340.171 C231.418,308.999 234.481,258.502 233.74,209.427 L214.726,211.55 L217.319,234.037 L210.216,212.051 L210.014,212.074 L209.333,211.568 L194.884,200.869 L179.054,219.536 L178.005,251.941 L186.726,262.967 L216.471,272.026 L189.927,267.789 L197.767,290.664 L184.648,266.947 L184.419,266.91 L183.817,266.334 L177.728,260.499 L175.797,320.18 L199.148,349.886 L176.155,329.596 L177.983,355.449 L178.021,355.945 L177.93,356.076 L178.31,356.54 L176.147,358.706 L163.969,376.678 L175.592,355.448 L169.334,328.262 L152.674,342.444 L152.759,342.782 L151.896,343.104 L135.186,357.326 L167,321.075 L166.908,280.263 L114.451,335.698 L101.24,369.864 L108.643,339.35 L79.559,352.121 L111.121,335.523 L135.629,306.592 L61.533,321.754 L85.202,315.429 L60.237,303.668 L90.428,314.031 L140.714,300.589 L166.886,269.693 L166.863,259.394 L144.189,277.334 L136.277,296.758 L139.299,278.26 L87.857,278.467 L68.215,295.882 L81.484,278.496 L47.067,278.636 L80.702,276.757 L65.387,248.833 L86.37,276.442 L141.176,273.383 L166.843,250.177 L166.781,223.554 L146.674,234.063 L136.277,265.038 L141.413,236.811 L137.279,238.969 L136.975,239.13 L136.884,239.155 L102.753,248.508 L135.362,235.635 L148.896,226.053 L123.743,226.026 L123.794,226.105 L86.597,245.685 L119.125,223.354 L109.738,213.44 L69.596,214.1 L105.985,209.475 L93.614,196.405 L123.197,221.911 L159.113,218.819 L169.307,211.603 L174.013,204.789 L148.146,202.858 L128.844,211.358 L144.485,199.549 L136.277,189.775 L148.238,200.336 L178.657,198.067 L181.264,194.295 L145.583,170.99 L163.399,179.023 L167.422,160.61 L167.899,181.05 L185.065,188.789 L209.873,152.881 C209.448,152.849 209.022,152.818 208.574,152.783 C206.061,152.728 203.206,152.63 200.078,152.613 C196.935,152.693 193.537,152.643 189.917,152.838 C186.301,152.995 182.484,153.145 178.53,153.445 C174.575,153.681 170.487,154.028 166.333,154.395 C163.186,154.645 160.001,154.983 156.811,155.312 C153.284,157.066 143.761,161.8 135.599,165.805 C135.216,165.998 134.834,166.192 134.452,166.385 L133.82,184.936 L130.067,168.6 C122.061,172.647 115.294,176.065 115.294,176.065 C115.294,176.065 124.344,169.617 133.393,163.168 C136.686,160.883 139.757,158.75 142.35,156.951 C129.476,158.541 117.191,160.37 107.459,162.021 C101.173,163.09 95.955,164.101 92.308,164.848 C88.675,165.658 86.597,166.119 86.597,166.119 C86.597,166.119 88.637,165.507 92.208,164.437 C95.794,163.428 100.938,162.038 107.147,160.517 C112.198,159.279 117.96,157.939 124.14,156.581 L89.787,142.197 L131.409,155.015 C138.361,153.549 145.685,152.096 153.037,150.757 C157.247,150.04 161.441,149.238 165.606,148.603 C166.714,148.424 167.805,148.254 168.904,148.081 L151.832,132.235 L122.419,127.176 L122.158,127.133 L122.044,127.038 L122.227,127.369 L121.083,127.841 L119.465,124.924 L108.068,115.586 L119.518,123.296 L119.84,123.065 L120.234,123.779 L122.809,125.511 L150.717,127.647 L154.123,108.367 L141.501,97.039 L156.714,106.558 L157.314,106.934 L157.324,107.918 L157.545,130.815 L178.116,146.717 C181.076,146.28 183.951,145.934 186.753,145.606 L174.83,109.474 L134.091,79.567 L159.223,94.2 L160.578,94.345 L160.569,94.983 L175.45,103.647 L189.073,82.722 L180.759,57.347 L192.032,78.178 L200.706,64.854 L194.842,44.488 L205.145,63.039 L213.494,60.572 L202.141,65.453 L180.675,108.968 L196.719,144.441 L196.248,144.624 C197.448,144.522 198.63,144.426 199.765,144.315 C203.014,144.099 206.013,143.98 208.679,143.852 C211.474,143.872 213.909,143.889 215.915,143.905 L216.066,143.917 L228.98,125.223 C226.338,98.475 223.093,78.244 220.503,70.993 C214.191,53.316 207.751,38.685 192.826,38.685 C182.343,38.685 168.298,45.73 151.079,59.625 C108.015,94.375 75.307,133.663 52.734,177.954 C52.665,178.332 52.602,178.72 52.553,179.123 C52.031,182.699 52.232,187.214 53.377,191.928 C54.497,196.647 56.548,201.584 59.389,206.092 C60.774,208.374 62.4,210.514 64.102,212.548 C65.836,214.551 67.644,216.465 69.566,218.141 C73.357,221.558 77.367,224.259 80.973,226.283 C82.752,227.353 84.497,228.118 86,228.894 C87.549,229.559 88.896,230.18 90.027,230.627 C92.308,231.486 93.614,231.976 93.614,231.976 C93.614,231.976 92.26,231.63 89.891,231.03 C88.71,230.706 87.3,230.236 85.661,229.739 C84.068,229.127 82.213,228.545 80.294,227.662 C76.403,226.011 71.979,223.701 67.619,220.571 C65.416,219.04 63.288,217.24 61.203,215.31 C59.152,213.349 57.15,211.238 55.369,208.93 C51.74,204.369 48.833,199.158 46.94,193.878 C46.663,193.114 46.413,192.349 46.178,191.585 C32.2,222.462 22.915,255.683 18.276,291.412 L18.407,291.433 C18.407,291.433 18.294,292.024 18.083,293.131 C18.066,293.222 18.045,293.336 18.026,293.433 C17.923,294.274 17.817,295.115 17.718,295.958 C17.685,296.334 17.661,296.752 17.662,297.225 C17.541,299.052 17.745,301.327 18.085,303.945 C18.531,306.56 19.254,309.513 20.368,312.684 C21.531,315.837 23.081,319.185 25.024,322.597 C26.953,326.021 29.387,329.437 32.103,332.831 C37.559,339.61 44.525,346.016 52.171,351.554 C55.994,354.331 59.999,356.875 64.049,359.209 C66.065,360.398 68.143,361.441 70.157,362.548 C72.222,363.551 74.252,364.577 76.28,365.516 C80.352,367.372 84.361,369.018 88.209,370.475 C90.148,371.168 92.032,371.845 93.856,372.495 C95.703,373.087 97.49,373.657 99.203,374.201 C106.086,376.305 111.936,377.723 116.044,378.645 C120.166,379.513 122.522,380.009 122.522,380.009 C122.522,380.009 120.136,379.665 115.964,379.059 C111.799,378.4 105.855,377.357 98.797,375.686 C97.037,375.246 95.204,374.788 93.305,374.314 C91.424,373.772 89.479,373.211 87.479,372.639 C83.498,371.415 79.33,370.01 75.07,368.384 C72.945,367.562 70.812,366.651 68.637,365.757 C66.51,364.763 64.315,363.831 62.171,362.746 C57.862,360.615 53.567,358.255 49.416,355.632 C41.116,350.393 33.349,344.142 27.018,337.236 C23.864,333.776 20.982,330.231 18.605,326.585 C17.478,324.877 16.449,323.164 15.504,321.46 C14.409,340.909 14.575,361.053 16.008,381.919 C18.935,424.546 31.145,424.549 35.159,424.549 L35.16,424.549 C41.404,424.549 49.147,420.945 56.639,417.459 C60.107,415.847 63.694,414.178 67.161,412.854 C100.471,400.148 126.887,396.013 148.113,392.691"
       fill="#D04044"
       id="path2" />
    <path
       d="M468.801,170.105 C469.282,170.591 469.389,170.726 469.646,171.072 C470.285,172.258 470.914,173.449 471.54,174.643 C471.988,175.891 472.408,177.385 472.621,179.123 C473.14,182.699 472.941,187.214 471.795,191.928 C470.675,196.647 468.624,201.584 465.783,206.092 C464.399,208.374 462.773,210.514 461.074,212.549 C460.758,212.913 460.437,213.271 460.116,213.627 L427.438,209.475 L439.81,196.407 L410.226,221.911 L374.309,218.819 L364.115,211.604 L359.408,204.789 L385.279,202.858 L404.579,211.358 L388.935,199.549 L397.146,189.775 L385.185,200.336 L354.766,198.067 L352.159,194.295 L387.842,170.991 L370.023,179.023 L366,160.61 L365.527,181.049 L348.355,188.789 L323.55,152.881 C323.975,152.849 324.4,152.818 324.847,152.783 C327.364,152.728 330.218,152.63 333.345,152.613 C336.487,152.693 339.888,152.643 343.504,152.838 C347.121,152.995 350.938,153.145 354.892,153.445 C358.847,153.681 362.933,154.028 367.088,154.395 C370.238,154.645 373.423,154.983 376.614,155.312 C380.14,157.066 389.665,161.8 397.826,165.806 C398.209,165.998 398.592,166.192 398.973,166.385 L399.602,184.936 L403.354,168.6 C411.362,172.647 418.129,176.065 418.129,176.065 L400.027,163.168 C396.735,160.883 393.665,158.75 391.072,156.951 C403.948,158.541 416.232,160.37 425.961,162.021 C432.25,163.09 437.466,164.101 441.112,164.848 C444.747,165.658 446.822,166.119 446.822,166.119 C446.822,166.119 444.783,165.507 441.215,164.438 C437.628,163.428 432.484,162.038 426.275,160.515 C421.225,159.277 415.464,157.938 409.286,156.581 L443.637,142.197 L402.016,155.015 C395.063,153.549 387.738,152.098 380.386,150.757 C376.178,150.041 371.979,149.236 367.816,148.603 C366.623,148.41 365.45,148.228 364.27,148.042 L381.577,132.236 L411.004,127.176 L411.263,127.133 L411.383,127.034 L411.196,127.369 L413.485,128.314 L415.598,124.506 L414.993,124.076 L425.353,115.586 L413.905,123.296 L413.584,123.065 L413.187,123.779 L410.614,125.511 L382.707,127.647 L379.3,108.367 L391.923,97.039 L376.709,106.558 L376.11,106.935 L375.878,130.751 L355.16,146.378 L355.458,146.737 C352.446,146.29 349.523,145.939 346.673,145.606 L358.592,109.474 L398.552,80.14 C427.495,107.168 450.789,136.729 468.519,169.017 L468.096,169.393 C468.096,169.393 468.339,169.641 468.801,170.105 M305.479,70.993 C311.792,53.316 318.232,38.685 333.155,38.685 C343.639,38.685 357.685,45.73 374.903,59.625 C383.141,66.27 390.99,73.088 398.472,80.068 L376.812,92.68 L372.829,93.109 L372.853,94.984 L357.975,103.646 L344.35,82.72 L352.665,57.347 L341.391,78.175 L332.721,64.857 L338.582,44.488 L328.277,63.039 L319.931,60.572 L331.282,65.453 L352.751,108.971 L336.711,144.441 L337.181,144.625 C335.979,144.523 334.793,144.426 333.656,144.315 C330.409,144.099 327.41,143.982 324.743,143.852 C321.949,143.872 319.514,143.889 317.508,143.905 L317.357,143.917 L297.979,115.866 C300.416,93.803 303.202,77.37 305.479,70.993 M233.739,209.401 L211.303,208.432 L199.021,195.991 L231.622,157.549 C232.701,173.986 233.47,191.599 233.739,209.401 M35.16,424.549 L35.159,424.549 C31.145,424.549 18.935,424.546 16.009,381.919 C14.575,361.053 14.409,340.909 15.504,321.46 C16.449,323.164 17.478,324.877 18.605,326.585 C20.982,330.234 23.864,333.778 27.018,337.236 C33.349,344.142 41.116,350.393 49.416,355.632 C53.567,358.255 57.862,360.615 62.171,362.746 C64.315,363.831 66.51,364.763 68.637,365.757 C70.812,366.651 72.945,367.562 75.07,368.384 C79.33,370.01 83.498,371.416 87.479,372.639 C89.479,373.211 91.424,373.772 93.305,374.314 C95.204,374.788 97.037,375.246 98.797,375.686 C105.855,377.357 111.799,378.4 115.964,379.059 C120.136,379.665 122.522,380.009 122.522,380.009 C122.522,380.009 120.167,379.513 116.044,378.645 C111.936,377.723 106.086,376.305 99.203,374.201 C97.49,373.657 95.703,373.087 93.856,372.498 C92.032,371.845 90.148,371.168 88.209,370.475 C84.361,369.018 80.352,367.372 76.28,365.516 C74.252,364.577 72.222,363.551 70.157,362.548 C68.143,361.441 66.065,360.398 64.049,359.209 C59.999,356.875 55.994,354.331 52.171,351.554 C44.525,346.016 37.559,339.613 32.103,332.831 C29.387,329.437 26.953,326.022 25.025,322.599 C23.081,319.185 21.531,315.837 20.368,312.684 C19.254,309.513 18.531,306.56 18.085,303.945 C17.745,301.327 17.543,299.052 17.662,297.228 C17.661,296.752 17.685,296.334 17.718,295.958 C17.817,295.115 17.923,294.274 18.026,293.433 C18.045,293.336 18.067,293.222 18.084,293.131 C18.294,292.024 18.407,291.433 18.407,291.433 L18.276,291.412 C22.915,255.687 32.2,222.462 46.178,191.585 C46.413,192.349 46.663,193.115 46.94,193.88 C48.833,199.159 51.74,204.369 55.369,208.93 C57.15,211.238 59.152,213.349 61.203,215.31 C63.288,217.24 65.416,219.04 67.619,220.573 C71.979,223.702 76.403,226.011 80.294,227.662 C82.214,228.545 84.068,229.127 85.661,229.739 C87.3,230.236 88.71,230.706 89.891,231.03 C92.26,231.63 93.614,231.976 93.614,231.976 C93.614,231.976 92.308,231.486 90.027,230.627 C88.896,230.18 87.549,229.559 86,228.894 C84.497,228.118 82.752,227.353 80.973,226.286 C77.367,224.259 73.357,221.558 69.566,218.141 C67.644,216.465 65.836,214.551 64.102,212.548 C62.4,210.514 60.774,208.374 59.389,206.092 C56.548,201.584 54.497,196.647 53.377,191.928 C52.232,187.214 52.031,182.699 52.553,179.123 C52.602,178.72 52.665,178.332 52.734,177.954 C75.307,133.663 108.015,94.375 151.079,59.625 C168.298,45.73 182.343,38.685 192.826,38.685 C207.751,38.685 214.191,53.316 220.503,70.993 C223.093,78.244 226.338,98.475 228.981,125.223 L216.066,143.917 L215.915,143.905 C213.909,143.889 211.474,143.872 208.679,143.852 C206.013,143.982 203.014,144.099 199.766,144.315 C198.63,144.426 197.448,144.523 196.248,144.624 L196.719,144.441 L180.675,108.968 L202.141,65.453 L213.494,60.572 L205.145,63.039 L194.842,44.488 L200.706,64.854 L192.032,78.178 L180.759,57.347 L189.073,82.722 L175.45,103.647 L160.569,94.984 L160.578,94.345 L159.223,94.2 L134.091,79.567 L174.83,109.474 L186.753,145.606 C183.951,145.934 181.076,146.28 178.116,146.717 L157.545,130.816 L157.324,107.918 L157.314,106.935 L156.714,106.558 L141.501,97.039 L154.123,108.367 L150.717,127.647 L122.809,125.511 L120.234,123.779 L119.84,123.065 L119.518,123.296 L108.068,115.586 L119.465,124.925 L121.083,127.841 L122.227,127.369 L122.044,127.038 L122.158,127.133 L122.419,127.176 L151.832,132.235 L168.904,148.081 C167.805,148.254 166.714,148.424 165.606,148.603 C161.441,149.238 157.247,150.041 153.037,150.757 C145.685,152.098 138.361,153.549 131.409,155.015 L89.787,142.197 L124.14,156.581 C117.96,157.939 112.198,159.279 107.147,160.517 C100.938,162.038 95.794,163.428 92.208,164.438 C88.637,165.507 86.597,166.119 86.597,166.119 C86.597,166.119 88.675,165.658 92.308,164.848 C95.955,164.101 101.173,163.09 107.459,162.021 C117.191,160.37 129.476,158.541 142.35,156.951 C139.757,158.75 136.686,160.883 133.394,163.168 C124.344,169.617 115.296,176.065 115.296,176.065 C115.296,176.065 122.061,172.647 130.067,168.6 L133.82,184.936 L134.452,166.385 C134.834,166.192 135.216,165.998 135.599,165.806 C143.761,161.8 153.284,157.066 156.811,155.312 C160.001,154.985 163.186,154.645 166.333,154.395 C170.487,154.028 174.575,153.681 178.53,153.445 C182.484,153.145 186.301,152.995 189.917,152.838 C193.537,152.643 196.935,152.693 200.078,152.613 C203.206,152.63 206.061,152.728 208.574,152.783 C209.024,152.818 209.448,152.849 209.873,152.881 L185.065,188.789 L167.9,181.05 L167.422,160.61 L163.399,179.023 L145.583,170.991 L181.264,194.295 L178.657,198.067 L148.238,200.336 L136.278,189.775 L144.485,199.549 L128.844,211.358 L148.146,202.858 L174.013,204.789 L169.307,211.604 L159.113,218.819 L123.197,221.911 L93.614,196.407 L105.985,209.475 L69.596,214.1 L109.738,213.44 L119.125,223.354 L86.597,245.685 L123.794,226.107 L123.743,226.026 L148.896,226.053 L135.362,235.635 L102.753,248.508 L136.884,239.155 L136.975,239.13 L137.279,238.973 L141.413,236.811 L136.278,265.038 L146.674,234.063 L166.781,223.554 L166.843,250.177 L141.176,273.383 L86.37,276.442 L65.387,248.833 L80.702,276.757 L47.067,278.636 L81.484,278.496 L68.215,295.882 L87.857,278.471 L139.299,278.26 L136.278,296.758 L144.189,277.334 L166.863,259.394 L166.886,269.694 L140.714,300.589 L90.428,314.031 L60.237,303.668 L85.202,315.429 L61.533,321.757 L135.629,306.592 L111.121,335.525 L79.559,352.121 L108.643,339.35 L101.24,369.864 L114.451,335.698 L166.908,280.263 L167,321.075 L135.186,357.326 L151.896,343.104 L152.759,342.782 L152.674,342.444 L169.334,328.262 L175.592,355.448 L163.969,376.678 L176.147,358.706 L178.31,356.54 L177.93,356.076 L178.021,355.945 L177.983,355.449 L176.155,329.596 L199.148,349.886 L175.797,320.18 L177.728,260.499 L183.817,266.334 L184.419,266.91 L184.648,266.947 L197.767,290.664 L189.927,267.789 L216.471,272.026 L186.726,262.967 L178.005,251.941 L179.054,219.536 L194.884,200.87 L209.333,211.568 L210.017,212.074 L210.216,212.052 L217.32,234.037 L214.726,211.55 L233.74,209.427 C234.484,258.502 231.418,308.999 220.492,340.171 C205.224,383.751 186.137,386.739 148.113,392.691 C126.887,396.013 100.471,400.15 67.161,412.854 C63.694,414.178 60.107,415.847 56.639,417.459 C49.147,420.945 41.404,424.549 35.16,424.549 M509.973,381.919 C507.047,424.549 494.838,424.549 490.825,424.549 C484.585,424.549 476.836,420.945 469.344,417.459 C465.874,415.847 462.287,414.178 458.821,412.854 C425.51,400.15 399.095,396.013 377.871,392.691 C339.847,386.739 320.761,383.751 305.489,340.171 C289.94,295.8 290.312,212.291 294.927,149.441 L334.404,195.994 L322.121,208.432 L299.524,209.409 L318.696,211.548 L316.105,234.037 L323.207,212.05 L323.409,212.074 L324.09,211.568 L338.54,200.872 L354.367,219.536 L355.417,251.942 L346.695,262.968 L316.957,272.026 L343.498,267.789 L335.658,290.664 L348.776,266.947 L349.006,266.91 L349.61,266.334 L355.695,260.5 L357.628,320.176 L334.276,349.886 L357.269,329.596 L355.405,355.945 L355.487,356.065 L354.289,357.456 L357.498,360.67 L358.201,360.071 L369.451,376.678 L357.831,355.449 L364.089,328.264 L380.771,342.461 L380.424,343.957 L384.292,345.501 L384.309,345.473 L398.235,357.326 L366.422,321.075 L366.514,280.069 L416.637,331.539 L429.817,365.625 L422.42,335.115 L451.498,347.882 L419.932,331.287 L400.848,309.264 L464.803,318.374 L440.13,313.095 L461.929,300.593 L434.66,311.925 L395.983,303.651 L366.536,269.667 L366.56,259.394 L389.233,277.335 L397.146,296.758 L394.12,278.233 L431.827,278.004 L451.005,295.009 L438.588,278.731 L439.009,277.961 L472.154,277.76 L440.084,276.005 L455.164,248.505 L434.499,275.696 L392.244,273.381 L366.58,250.179 L366.639,223.554 L386.748,234.062 L397.146,265.038 L392.011,236.811 L396.145,238.973 L396.448,239.13 L396.538,239.155 L430.666,248.508 L398.06,235.632 L384.527,226.053 L409.68,226.026 L409.63,226.107 L446.822,245.685 L414.297,223.354 L423.684,213.44 L459.757,214.033 C458.427,215.495 457.049,216.884 455.608,218.141 C451.817,221.558 447.805,224.259 444.199,226.286 C442.421,227.353 440.677,228.118 439.174,228.894 C437.623,229.559 436.278,230.18 435.146,230.627 C432.864,231.486 431.561,231.976 431.561,231.976 C431.561,231.976 432.913,231.63 435.283,231.03 C436.464,230.706 437.874,230.236 439.512,229.739 C441.105,229.127 442.959,228.545 444.881,227.662 C448.772,226.011 453.195,223.702 457.555,220.573 C459.758,219.04 461.887,217.24 463.97,215.31 C466.021,213.349 468.025,211.239 469.803,208.93 C473.433,204.369 476.341,199.159 478.233,193.88 C478.644,192.75 478.996,191.62 479.312,190.49 C493.554,221.641 502.992,255.186 507.69,291.287 L506.767,291.433 C506.767,291.433 506.879,292.024 507.09,293.131 C507.141,293.407 507.198,293.715 507.264,294.052 C507.287,294.32 507.316,294.611 507.345,294.928 C507.416,295.553 507.515,296.275 507.511,297.225 C507.631,299.052 507.426,301.326 507.088,303.945 C506.642,306.56 505.917,309.513 504.806,312.684 C503.643,315.837 502.094,319.185 500.147,322.599 C498.218,326.022 495.786,329.437 493.069,332.831 C487.615,339.609 480.647,346.016 473,351.554 C469.179,354.331 465.173,356.875 461.122,359.209 C459.109,360.398 457.032,361.441 455.015,362.548 C452.952,363.551 450.922,364.577 448.894,365.516 C444.822,367.372 440.816,369.018 436.965,370.475 C435.026,371.168 433.141,371.845 431.317,372.498 C429.469,373.087 427.687,373.657 425.972,374.201 C419.088,376.305 413.241,377.723 409.134,378.645 C405.009,379.513 402.652,380.009 402.652,380.009 C402.652,380.009 405.036,379.665 409.208,379.059 C413.375,378.4 419.318,377.357 426.378,375.686 C428.136,375.246 429.969,374.788 431.867,374.314 C433.751,373.772 435.694,373.211 437.695,372.639 C441.678,371.416 445.846,370.01 450.104,368.384 C452.228,367.562 454.361,366.648 456.535,365.757 C458.664,364.76 460.858,363.831 463.003,362.746 C467.31,360.615 471.607,358.255 475.757,355.629 C484.057,350.393 491.822,344.142 498.155,337.233 C501.31,333.778 504.19,330.234 506.568,326.585 C507.998,324.416 509.265,322.243 510.4,320.088 C511.584,339.961 511.439,360.562 509.973,381.919 M382.895,49.717 C363.082,33.73 346.81,25.959 333.155,25.959 C308.048,25.959 298.938,51.467 293.492,66.711 C291.713,71.693 289.72,81.968 287.786,96.034 L283.967,90.504 L285.467,1.858 L245.928,1.858 L247.602,93.189 L239.369,105.109 C237.106,86.542 234.646,72.754 232.485,66.709 C227.044,51.467 217.934,25.959 192.826,25.959 C179.173,25.959 162.902,33.73 143.09,49.717 C102.031,82.85 69.604,120.628 46.712,162.005 C46.177,162.687 45.134,164.169 44.47,165.497 C43.958,166.48 43.489,167.574 43.076,168.749 C10.674,230.564 -2.333,300.584 3.314,382.793 C4.917,406.181 9.968,437.273 35.16,437.276 C44.231,437.276 53.269,433.067 62.008,428.998 C65.42,427.41 68.644,425.91 71.697,424.745 C103.756,412.517 129.438,408.497 150.079,405.263 C187.602,399.39 214.712,395.147 232.503,344.384 C251.857,289.158 245.935,181.65 243.478,148.027 L262.922,125.103 L270.503,125.103 L283.125,139.985 C280.299,174.915 273.302,286.807 293.479,344.384 C311.269,395.147 338.379,399.39 375.9,405.263 C396.538,408.494 422.223,412.516 454.285,424.745 C457.35,425.915 460.568,427.413 463.976,428.998 C472.716,433.067 481.756,437.276 490.825,437.276 C516.019,437.276 521.064,406.182 522.668,382.793 C532.316,242.352 486.595,133.401 382.895,49.717"
       fill="#1A1919"
       id="path4" />
    <path
       d="M160.644,89.125 L156.969,88.73 L156.442,91.285 L160.611,91.735 L160.644,89.125"
       fill="#1A1919"
       id="path6" />
    <path
       d="M160.709,83.906 L158.018,83.615 L157.492,86.171 L160.676,86.516 L160.709,83.906"
       fill="#1A1919"
       id="path8" />
    <path
       d="M160.773,78.685 L159.066,78.502 L158.542,81.059 L160.743,81.297 L160.773,78.685"
       fill="#1A1919"
       id="path10" />
    <path
       d="M160.838,73.466 L160.114,73.386 L159.589,75.945 L160.808,76.076 L160.838,73.466"
       fill="#1A1919"
       id="path12" />
    <path
       d="M160.886,69.621 L160.638,70.831 L160.872,70.856 L160.886,69.621"
       fill="#1A1919"
       id="path14" />
    <path
       d="M118.564,128.884 L116.616,125.373 L114.398,126.959 L116.042,129.928 L118.564,128.884"
       fill="#1A1919"
       id="path16" />
    <path
       d="M113.524,130.969 L112.179,128.544 L109.962,130.131 L111.003,132.012 L113.524,130.969"
       fill="#1A1919"
       id="path18" />
    <path
       d="M108.484,133.053 L107.744,131.717 L105.526,133.305 L105.964,134.096 L108.484,133.053"
       fill="#1A1919"
       id="path20" />
    <path
       d="M103.308,134.89 L102.3,135.611 L103.445,135.138 L103.308,134.89"
       fill="#1A1919"
       id="path22" />
    <path
       d="M153.832,347.038 L153.297,344.91 L149.399,346.369 L150.391,348.325 L153.832,347.038"
       fill="#1A1919"
       id="path24" />
    <path
       d="M152.375,352.236 L154.906,351.29 L154.368,349.162 L151.382,350.281 L152.375,352.236"
       fill="#1A1919"
       id="path26" />
    <path
       d="M154.358,356.148 L155.98,355.542 L155.441,353.417 L153.365,354.192 L154.358,356.148"
       fill="#1A1919"
       id="path28" />
    <path
       d="M156.341,360.062 L157.053,359.797 L156.515,357.669 L155.35,358.106 L156.341,360.062"
       fill="#1A1919"
       id="path30" />
    <path
       d="M157.589,361.921 L157.333,362.018 L157.892,363.124 L157.589,361.921"
       fill="#1A1919"
       id="path32" />
    <path
       d="M181.464,360.38 L179.888,358.459 L176.931,361.42 L178.854,362.994 L181.464,360.38"
       fill="#1A1919"
       id="path34" />
    <path
       d="M182.704,366.138 L184.616,364.225 L183.039,362.303 L180.78,364.566 L182.704,366.138"
       fill="#1A1919"
       id="path36" />
    <path
       d="M187.768,368.066 L186.191,366.144 L184.627,367.711 L186.55,369.283 L187.768,368.066"
       fill="#1A1919"
       id="path38" />
    <path
       d="M190.921,371.907 L189.346,369.988 L188.477,370.859 L190.401,372.431 L190.921,371.907"
       fill="#1A1919"
       id="path40" />
    <path
       d="M192.497,373.829 L192.323,374.003 L193.28,374.784 L192.497,373.829"
       fill="#1A1919"
       id="path42" />
    <path
       d="M372.799,90.638 L376.761,90.211 L376.263,87.79 L372.768,88.167 L372.799,90.638"
       fill="#1A1919"
       id="path44" />
    <path
       d="M372.738,85.695 L375.766,85.369 L375.271,82.95 L372.707,83.225 L372.738,85.695"
       fill="#1A1919"
       id="path46" />
    <path
       d="M372.676,80.753 L374.773,80.528 L374.277,78.106 L372.646,78.282 L372.676,80.753"
       fill="#1A1919"
       id="path48" />
    <path
       d="M372.613,75.812 L373.781,75.686 L373.284,73.264 L372.582,73.34 L372.613,75.812"
       fill="#1A1919"
       id="path50" />
    <path
       d="M372.787,70.843 L372.536,69.62 L372.552,70.871 L372.787,70.843"
       fill="#1A1919"
       id="path52" />
    <path
       d="M415.773,129.262 L418.063,130.209 L419.627,127.388 L417.613,125.947 L415.773,129.262"
       fill="#1A1919"
       id="path54" />
    <path
       d="M420.35,131.156 L422.639,132.103 L423.655,130.27 L421.64,128.828 L420.35,131.156"
       fill="#1A1919"
       id="path56" />
    <path
       d="M424.927,133.048 L427.213,133.993 L427.683,133.15 L425.669,131.711 L424.927,133.048"
       fill="#1A1919"
       id="path58" />
    <path
       d="M429.503,134.94 L431.122,135.611 L429.697,134.59 L429.503,134.94"
       fill="#1A1919"
       id="path60" />
    <path
       d="M379.297,348.803 L381.763,349.79 L383.026,347.646 L379.862,346.38 L379.297,348.803"
       fill="#1A1919"
       id="path62" />
    <path
       d="M378.172,353.655 L379.235,354.08 L380.498,351.934 L378.734,351.231 L378.172,353.655"
       fill="#1A1919"
       id="path64" />
    <path
       d="M377.32,357.326 L377.971,356.221 L377.608,356.077 L377.32,357.326"
       fill="#1A1919"
       id="path66" />
    <path
       d="M351.075,361.198 L353.753,363.881 L355.624,362.274 L352.683,359.327 L351.075,361.198"
       fill="#1A1919"
       id="path68" />
    <path
       d="M347.857,364.941 L350.001,367.088 L351.879,365.485 L349.466,363.069 L347.857,364.941"
       fill="#1A1919"
       id="path70" />
    <path
       d="M344.641,368.683 L346.253,370.297 L348.127,368.694 L346.249,366.811 L344.641,368.683"
       fill="#1A1919"
       id="path72" />
    <path
       d="M341.425,372.425 L342.505,373.507 L344.379,371.902 L343.033,370.554 L341.425,372.425"
       fill="#1A1919"
       id="path74" />
    <path
       d="M338.211,376.168 L338.756,376.714 L340.63,375.111 L339.816,374.296 L338.211,376.168"
       fill="#1A1919"
       id="path76" />
    <path
       d="M334.992,379.911 L335.008,379.924 L336.882,378.322 L336.6,378.039 L334.992,379.911"
       fill="#1A1919"
       id="path78" />
    <path
       d="M352.274,328.975 C352.274,329.468 352.673,329.87 353.166,329.87 C353.657,329.87 354.056,329.468 354.056,328.975 C354.056,328.482 353.657,328.085 353.166,328.085 C352.673,328.085 352.274,328.482 352.274,328.975 M358.348,333.821 C358.348,334.314 358.746,334.713 359.239,334.713 C359.73,334.713 360.129,334.314 360.129,333.821 C360.129,333.328 359.73,332.927 359.239,332.927 C358.746,332.927 358.348,333.328 358.348,333.821 M359.239,328.975 C359.239,329.468 359.64,329.87 360.129,329.87 C360.626,329.87 361.022,329.468 361.022,328.975 C361.022,328.482 360.626,328.085 360.129,328.085 C359.64,328.085 359.239,328.482 359.239,328.975 M368.146,328.975 C368.146,329.468 368.546,329.87 369.039,329.87 C369.53,329.87 369.933,329.468 369.933,328.975 C369.933,328.482 369.53,328.085 369.039,328.085 C368.546,328.085 368.146,328.482 368.146,328.975 M356.117,325.143 C356.117,325.759 356.618,326.259 357.233,326.259 C357.853,326.259 358.353,325.759 358.353,325.143 C358.353,324.526 357.853,324.027 357.233,324.027 C356.618,324.027 356.117,324.526 356.117,325.143 M364.251,325.143 C364.251,325.935 364.893,326.577 365.685,326.577 C366.478,326.577 367.121,325.935 367.121,325.143 C367.121,324.352 366.478,323.709 365.685,323.709 C364.893,323.709 364.251,324.352 364.251,325.143 M179.843,328.085 C179.35,328.085 178.95,328.482 178.95,328.975 C178.95,329.468 179.35,329.87 179.843,329.87 C180.335,329.87 180.734,329.468 180.734,328.975 C180.734,328.482 180.335,328.085 179.843,328.085 M173.77,332.927 C173.277,332.927 172.877,333.328 172.877,333.821 C172.877,334.314 173.277,334.713 173.77,334.713 C174.261,334.713 174.661,334.314 174.661,333.821 C174.661,333.328 174.261,332.927 173.77,332.927 M172.877,328.085 C172.384,328.085 171.984,328.482 171.984,328.975 C171.984,329.468 172.384,329.87 172.877,329.87 C173.369,329.87 173.77,329.468 173.77,328.975 C173.77,328.482 173.369,328.085 172.877,328.085 M163.969,328.085 C163.476,328.085 163.077,328.482 163.077,328.975 C163.077,329.468 163.476,329.87 163.969,329.87 C164.461,329.87 164.862,329.468 164.862,328.975 C164.862,328.482 164.461,328.085 163.969,328.085 M361.727,144.989 C361.727,145.649 362.258,146.186 362.92,146.186 C363.58,146.186 364.113,145.649 364.113,144.989 C364.113,144.328 363.58,143.795 362.92,143.795 C362.258,143.795 361.727,144.328 361.727,144.989 M352.622,103.686 C352.622,104.385 353.189,104.95 353.889,104.95 C354.585,104.95 355.152,104.385 355.152,103.686 C355.152,102.987 354.585,102.42 353.889,102.42 C353.189,102.42 352.622,102.987 352.622,103.686 M358.926,105.356 C358.926,105.916 359.381,106.372 359.94,106.372 C360.504,106.372 360.959,105.916 360.959,105.356 C360.959,104.793 360.504,104.339 359.94,104.339 C359.381,104.339 358.926,104.793 358.926,105.356 M170.454,143.795 C169.792,143.795 169.259,144.328 169.259,144.989 C169.259,145.649 169.792,146.186 170.454,146.186 C171.113,146.186 171.648,145.649 171.648,144.989 C171.648,144.328 171.113,143.795 170.454,143.795 M179.485,102.42 C178.787,102.42 178.221,102.987 178.221,103.686 C178.221,104.385 178.787,104.95 179.485,104.95 C180.184,104.95 180.751,104.385 180.751,103.686 C180.751,102.987 180.184,102.42 179.485,102.42 M173.43,104.339 C172.87,104.339 172.415,104.793 172.415,105.356 C172.415,105.916 172.87,106.372 173.43,106.372 C173.99,106.372 174.447,105.916 174.447,105.356 C174.447,104.793 173.99,104.339 173.43,104.339 M331.053,202.229 C331.053,202.857 331.563,203.367 332.19,203.367 C332.82,203.367 333.33,202.857 333.33,202.229 C333.33,201.602 332.82,201.09 332.19,201.09 C331.563,201.09 331.053,201.602 331.053,202.229 M334.087,199.726 C334.087,200.354 334.599,200.864 335.229,200.864 C335.856,200.864 336.366,200.354 336.366,199.726 C336.366,199.097 335.856,198.587 335.229,198.587 C334.599,198.587 334.087,199.097 334.087,199.726 M356.247,187.486 C356.247,188.115 356.759,188.626 357.387,188.626 C358.013,188.626 358.525,188.115 358.525,187.486 C358.525,186.858 358.013,186.348 357.387,186.348 C356.759,186.348 356.247,186.858 356.247,187.486 M351.865,190.255 C351.865,190.882 352.377,191.394 353.003,191.394 C353.631,191.394 354.143,190.882 354.143,190.255 C354.143,189.627 353.631,189.115 353.003,189.115 C352.377,189.115 351.865,189.627 351.865,190.255 M365.442,201.262 C365.442,201.837 365.905,202.302 366.48,202.302 C367.053,202.302 367.515,201.837 367.515,201.262 C367.515,200.69 367.053,200.227 366.48,200.227 C365.905,200.227 365.442,200.69 365.442,201.262 M360.138,201.262 C360.138,202.113 360.824,202.8 361.675,202.8 C362.523,202.8 363.212,202.113 363.212,201.262 C363.212,200.413 362.523,199.726 361.675,199.726 C360.824,199.726 360.138,200.413 360.138,201.262 M201.574,201.09 C200.944,201.09 200.433,201.602 200.433,202.229 C200.433,202.857 200.944,203.367 201.574,203.367 C202.2,203.367 202.711,202.857 202.711,202.229 C202.711,201.602 202.2,201.09 201.574,201.09 M198.536,198.587 C197.908,198.587 197.397,199.097 197.397,199.726 C197.397,200.354 197.908,200.864 198.536,200.864 C199.163,200.864 199.675,200.354 199.675,199.726 C199.675,199.097 199.163,198.587 198.536,198.587 M176.377,186.348 C175.749,186.348 175.237,186.858 175.237,187.486 C175.237,188.115 175.749,188.626 176.377,188.626 C177.006,188.626 177.516,188.115 177.516,187.486 C177.516,186.858 177.006,186.348 176.377,186.348 M180.759,189.115 C180.131,189.115 179.62,189.627 179.62,190.255 C179.62,190.882 180.131,191.394 180.759,191.394 C181.388,191.394 181.898,190.882 181.898,190.255 C181.898,189.627 181.388,189.115 180.759,189.115 M355.727,215.817 L356.146,216.791 L362.388,215.409 L360.395,211.813 L355.727,215.817 z M364.411,218.29 C364.411,219.116 365.084,219.789 365.911,219.789 C366.736,219.789 367.41,219.116 367.41,218.29 C367.41,217.463 366.736,216.791 365.911,216.791 C365.084,216.791 364.411,217.463 364.411,218.29 M369.018,221.028 C369.018,221.81 369.653,222.445 370.437,222.445 C371.221,222.445 371.856,221.81 371.856,221.028 C371.856,220.244 371.221,219.609 370.437,219.609 C369.653,219.609 369.018,220.244 369.018,221.028 M373.629,223.766 C373.629,224.502 374.226,225.102 374.964,225.102 C375.703,225.102 376.304,224.502 376.304,223.766 C376.304,223.026 375.703,222.427 374.964,222.427 C374.226,222.427 373.629,223.026 373.629,223.766 M378.235,226.501 C378.235,227.196 378.799,227.759 379.492,227.759 C380.186,227.759 380.748,227.196 380.748,226.501 C380.748,225.808 380.186,225.246 379.492,225.246 C378.799,225.246 378.235,225.808 378.235,226.501 M382.844,229.24 C382.844,229.886 383.37,230.415 384.021,230.415 C384.67,230.415 385.197,229.886 385.197,229.24 C385.197,228.591 384.67,228.063 384.021,228.063 C383.37,228.063 382.844,228.591 382.844,229.24 M387.451,231.978 C387.451,232.58 387.941,233.07 388.548,233.07 C389.152,233.07 389.643,232.58 389.643,231.978 C389.643,231.37 389.152,230.881 388.548,230.881 C387.941,230.881 387.451,231.37 387.451,231.978 M172.939,211.813 L170.947,215.409 L177.186,216.791 L177.606,215.817 L172.939,211.813 z M167.285,200.227 C166.714,200.227 166.249,200.69 166.249,201.262 C166.249,201.837 166.714,202.302 167.285,202.302 C167.858,202.302 168.322,201.837 168.322,201.262 C168.322,200.69 167.858,200.227 167.285,200.227 M172.089,199.726 C171.241,199.726 170.552,200.413 170.552,201.262 C170.552,202.113 171.241,202.8 172.089,202.8 C172.938,202.8 173.627,202.113 173.627,201.262 C173.627,200.413 172.938,199.726 172.089,199.726 M175.773,324.027 C175.157,324.027 174.655,324.526 174.655,325.143 C174.655,325.759 175.157,326.259 175.773,326.259 C176.389,326.259 176.887,325.759 176.887,325.143 C176.887,324.526 176.389,324.027 175.773,324.027 M167.323,323.709 C166.528,323.709 165.885,324.352 165.885,325.143 C165.885,325.935 166.528,326.577 167.323,326.577 C168.115,326.577 168.757,325.935 168.757,325.143 C168.757,324.352 168.115,323.709 167.323,323.709 M342.042,140.696 C342.042,141.523 342.714,142.195 343.54,142.195 C344.368,142.195 345.04,141.523 345.04,140.696 C345.04,139.869 344.368,139.197 343.54,139.197 C342.714,139.197 342.042,139.869 342.042,140.696 M344.569,134.583 C344.569,135.366 345.206,136.002 345.987,136.002 C346.771,136.002 347.405,135.366 347.405,134.583 C347.405,133.8 346.771,133.167 345.987,133.167 C345.206,133.167 344.569,133.8 344.569,134.583 M347.098,128.474 C347.098,129.211 347.697,129.81 348.434,129.81 C349.172,129.81 349.772,129.211 349.772,128.474 C349.772,127.733 349.172,127.135 348.434,127.135 C347.697,127.135 347.098,127.733 347.098,128.474 M349.623,122.362 C349.623,123.055 350.188,123.619 350.883,123.619 C351.576,123.619 352.139,123.055 352.139,122.362 C352.139,121.667 351.576,121.105 350.883,121.105 C350.188,121.105 349.623,121.667 349.623,122.362 M352.154,116.25 C352.154,116.897 352.68,117.424 353.327,117.424 C353.98,117.424 354.506,116.897 354.506,116.25 C354.506,115.601 353.98,115.074 353.327,115.074 C352.68,115.074 352.154,115.601 352.154,116.25 M354.68,110.14 C354.68,110.743 355.171,111.233 355.777,111.233 C356.383,111.233 356.872,110.743 356.872,110.14 C356.872,109.534 356.383,109.043 355.777,109.043 C355.171,109.043 354.68,109.534 354.68,110.14 M321.642,148.148 C321.642,148.976 322.313,149.648 323.14,149.648 C323.97,149.648 324.64,148.976 324.64,148.148 C324.64,147.321 323.97,146.65 323.14,146.65 C322.313,146.65 321.642,147.321 321.642,148.148 M329.289,148.449 C329.289,149.232 329.923,149.866 330.707,149.866 C331.489,149.866 332.124,149.232 332.124,148.449 C332.124,147.666 331.489,147.029 330.707,147.029 C329.923,147.029 329.289,147.666 329.289,148.449 M336.934,148.749 C336.934,149.487 337.532,150.085 338.271,150.085 C339.009,150.085 339.61,149.487 339.61,148.749 C339.61,148.011 339.009,147.411 338.271,147.411 C337.532,147.411 336.934,148.011 336.934,148.749 M344.578,149.049 C344.578,149.74 345.142,150.305 345.838,150.305 C346.529,150.305 347.094,149.74 347.094,149.049 C347.094,148.353 346.529,147.791 345.838,147.791 C345.142,147.791 344.578,148.353 344.578,149.049 M352.223,149.348 C352.223,149.996 352.752,150.522 353.401,150.522 C354.052,150.522 354.578,149.996 354.578,149.348 C354.578,148.699 354.052,148.172 353.401,148.172 C352.752,148.172 352.223,148.699 352.223,149.348 M359.87,149.648 C359.87,150.251 360.358,150.742 360.966,150.742 C361.572,150.742 362.061,150.251 362.061,149.648 C362.061,149.043 361.572,148.553 360.966,148.553 C360.358,148.553 359.87,149.043 359.87,149.648 M189.975,139.197 C189.146,139.197 188.476,139.869 188.476,140.696 C188.476,141.523 189.146,142.195 189.975,142.195 C190.803,142.195 191.474,141.523 191.474,140.696 C191.474,139.869 190.803,139.197 189.975,139.197 M187.528,133.167 C186.745,133.167 186.109,133.8 186.109,134.583 C186.109,135.366 186.745,136.002 187.528,136.002 C188.309,136.002 188.946,135.366 188.946,134.583 C188.946,133.8 188.309,133.167 187.528,133.167 M185.081,127.135 C184.341,127.135 183.744,127.733 183.744,128.474 C183.744,129.211 184.341,129.81 185.081,129.81 C185.818,129.81 186.42,129.211 186.42,128.474 C186.42,127.733 185.818,127.135 185.081,127.135 M182.633,121.105 C181.938,121.105 181.377,121.667 181.377,122.362 C181.377,123.055 181.938,123.619 182.633,123.619 C183.328,123.619 183.89,123.055 183.89,122.362 C183.89,121.667 183.328,121.105 182.633,121.105 M180.184,115.074 C179.537,115.074 179.01,115.601 179.01,116.25 C179.01,116.897 179.537,117.424 180.184,117.424 C180.835,117.424 181.362,116.897 181.362,116.25 C181.362,115.601 180.835,115.074 180.184,115.074 M177.74,109.043 C177.134,109.043 176.643,109.534 176.643,110.14 C176.643,110.743 177.134,111.233 177.74,111.233 C178.346,111.233 178.834,110.743 178.834,110.14 C178.834,109.534 178.346,109.043 177.74,109.043 M210.375,146.65 C209.548,146.65 208.876,147.321 208.876,148.148 C208.876,148.976 209.548,149.648 210.375,149.648 C211.204,149.648 211.874,148.976 211.874,148.148 C211.874,147.321 211.204,146.65 210.375,146.65 M202.811,147.029 C202.026,147.029 201.394,147.666 201.394,148.449 C201.394,149.232 202.026,149.866 202.811,149.866 C203.593,149.866 204.229,149.232 204.229,148.449 C204.229,147.666 203.593,147.029 202.811,147.029 M195.243,147.411 C194.506,147.411 193.908,148.011 193.908,148.749 C193.908,149.487 194.506,150.085 195.243,150.085 C195.985,150.085 196.583,149.487 196.583,148.749 C196.583,148.011 195.985,147.411 195.243,147.411 M187.679,147.791 C186.984,147.791 186.421,148.353 186.421,149.049 C186.421,149.74 186.984,150.305 187.679,150.305 C188.375,150.305 188.938,149.74 188.938,149.049 C188.938,148.353 188.375,147.791 187.679,147.791 M180.114,148.172 C179.463,148.172 178.939,148.699 178.939,149.348 C178.939,149.996 179.463,150.522 180.114,150.522 C180.764,150.522 181.292,149.996 181.292,149.348 C181.292,148.699 180.764,148.172 180.114,148.172 M172.55,148.553 C171.944,148.553 171.454,149.043 171.454,149.648 C171.454,150.251 171.944,150.742 172.55,150.742 C173.156,150.742 173.645,150.251 173.645,149.648 C173.645,149.043 173.156,148.553 172.55,148.553 M167.422,216.791 C166.596,216.791 165.925,217.463 165.925,218.29 C165.925,219.116 166.596,219.789 167.422,219.789 C168.25,219.789 168.922,219.116 168.922,218.29 C168.922,217.463 168.25,216.791 167.422,216.791 M162.897,219.609 C162.113,219.609 161.478,220.244 161.478,221.028 C161.478,221.81 162.113,222.445 162.897,222.445 C163.679,222.445 164.313,221.81 164.313,221.028 C164.313,220.244 163.679,219.609 162.897,219.609 M158.369,222.427 C157.628,222.427 157.031,223.026 157.031,223.766 C157.031,224.502 157.628,225.102 158.369,225.102 C159.108,225.102 159.707,224.502 159.707,223.766 C159.707,223.026 159.108,222.427 158.369,222.427 M153.84,225.246 C153.147,225.246 152.584,225.808 152.584,226.501 C152.584,227.196 153.147,227.759 153.84,227.759 C154.535,227.759 155.098,227.196 155.098,226.501 C155.098,225.808 154.535,225.246 153.84,225.246 M149.313,228.063 C148.662,228.063 148.137,228.591 148.137,229.24 C148.137,229.886 148.662,230.415 149.313,230.415 C149.964,230.415 150.49,229.886 150.49,229.24 C150.49,228.591 149.964,228.063 149.313,228.063 M144.786,230.881 C144.18,230.881 143.69,231.37 143.69,231.978 C143.69,232.58 144.18,233.07 144.786,233.07 C145.392,233.07 145.882,232.58 145.882,231.978 C145.882,231.37 145.392,230.881 144.786,230.881 M367.21,256.571 C367.21,257.4 367.88,258.071 368.709,258.071 C369.539,258.071 370.209,257.4 370.209,256.571 C370.209,255.745 369.539,255.072 368.709,255.072 C367.88,255.072 367.21,255.745 367.21,256.571 M371.578,260.201 C371.578,260.983 372.215,261.618 372.998,261.618 C373.781,261.618 374.415,260.983 374.415,260.201 C374.415,259.417 373.781,258.782 372.998,258.782 C372.215,258.782 371.578,259.417 371.578,260.201 M375.949,263.828 C375.949,264.568 376.547,265.166 377.284,265.166 C378.025,265.166 378.622,264.568 378.622,263.828 C378.622,263.09 378.025,262.491 377.284,262.491 C376.547,262.491 375.949,263.09 375.949,263.828 M380.315,267.457 C380.315,268.15 380.878,268.713 381.572,268.713 C382.268,268.713 382.829,268.15 382.829,267.457 C382.829,266.761 382.268,266.2 381.572,266.2 C380.878,266.2 380.315,266.761 380.315,267.457 M384.684,271.084 C384.684,271.734 385.212,272.259 385.861,272.259 C386.51,272.259 387.038,271.734 387.038,271.084 C387.038,270.435 386.51,269.907 385.861,269.907 C385.212,269.907 384.684,270.435 384.684,271.084 M389.054,274.713 C389.054,275.317 389.545,275.808 390.147,275.808 C390.753,275.808 391.243,275.317 391.243,274.713 C391.243,274.109 390.753,273.618 390.147,273.618 C389.545,273.618 389.054,274.109 389.054,274.713 M165.13,254.87 C164.305,254.87 163.631,255.542 163.631,256.37 C163.631,257.199 164.305,257.869 165.13,257.869 C165.958,257.869 166.629,257.199 166.629,256.37 C166.629,255.542 165.958,254.87 165.13,254.87 M160.842,258.581 C160.059,258.581 159.425,259.214 159.425,260 C159.425,260.782 160.059,261.417 160.842,261.417 C161.627,261.417 162.261,260.782 162.261,260 C162.261,259.214 161.627,258.581 160.842,258.581 M156.555,262.29 C155.816,262.29 155.217,262.888 155.217,263.625 C155.217,264.367 155.816,264.963 156.555,264.963 C157.294,264.963 157.894,264.367 157.894,263.625 C157.894,262.888 157.294,262.29 156.555,262.29 M152.267,265.997 C151.572,265.997 151.01,266.56 151.01,267.254 C151.01,267.949 151.572,268.511 152.267,268.511 C152.962,268.511 153.523,267.949 153.523,267.254 C153.523,266.56 152.962,265.997 152.267,265.997 M147.979,269.708 C147.33,269.708 146.804,270.232 146.804,270.883 C146.804,271.533 147.33,272.059 147.979,272.059 C148.627,272.059 149.154,271.533 149.154,270.883 C149.154,270.232 148.627,269.708 147.979,269.708 M143.693,273.417 C143.087,273.417 142.597,273.905 142.597,274.511 C142.597,275.117 143.087,275.606 143.693,275.606 C144.296,275.606 144.786,275.117 144.786,274.511 C144.786,273.905 144.296,273.417 143.693,273.417 M359.185,319.557 L363.021,319.557 L363.021,317.188 L359.185,317.188 z M358.878,308.921 L362.978,308.921 L362.978,306.392 L358.878,306.392 z M358.575,298.284 L362.932,298.284 L362.932,295.592 L358.575,295.592 z M358.269,287.647 L362.885,287.647 L362.885,284.794 L358.269,284.794 z M357.965,277.011 L362.842,277.011 L362.842,273.999 L357.965,273.999 z M357.662,266.375 L362.793,266.375 L362.793,263.201 L357.662,263.201 z M357.354,255.737 L362.75,255.737 L362.75,252.402 L357.354,252.402 z M357.052,245.102 L362.709,245.102 L362.709,241.607 L357.052,241.607 z M356.745,234.463 L362.661,234.463 L362.661,230.808 L356.745,230.808 z M356.442,223.826 L362.616,223.826 L362.616,220.011 L356.442,220.011 z M169.384,319.557 L173.221,319.557 L173.221,317.186 L169.384,317.186 z M169.428,308.919 L173.525,308.919 L173.525,306.388 L169.428,306.388 z M169.473,298.282 L173.832,298.282 L173.832,295.591 L169.473,295.591 z M169.518,287.648 L174.136,287.648 L174.136,284.794 L169.518,284.794 z M169.564,277.009 L174.44,277.009 L174.44,273.996 L169.564,273.996 z M169.608,266.375 L174.743,266.375 L174.743,263.2 L169.608,263.2 z M169.653,255.737 L175.049,255.737 L175.049,252.402 L169.653,252.402 z M169.697,245.1 L175.353,245.1 L175.353,241.605 L169.697,241.605 z M169.745,234.462 L175.659,234.462 L175.659,230.807 L169.745,230.807 z M169.789,223.825 L175.963,223.825 L175.963,220.01 L169.789,220.01 z M282.082,125.612 L292.052,117.648 L286.921,111.233 L276.954,119.194 L282.082,125.612 z M290.646,136.134 L300.022,128.646 L295.197,122.613 L285.827,130.1 L290.646,136.134 z M299.212,146.654 L307.99,139.645 L303.471,133.995 L294.697,141.007 L299.212,146.654 z M307.778,157.176 L315.957,150.641 L311.748,145.376 L303.569,151.911 L307.778,157.176 z M316.342,167.699 L323.928,161.638 L320.022,156.757 L312.439,162.815 L316.342,167.699 z M324.908,178.222 L331.896,172.636 L328.299,168.138 L321.313,173.721 L324.908,178.222 z M333.472,188.742 L339.864,183.634 L336.576,179.519 L330.186,184.626 L333.472,188.742 z M342.038,199.264 L347.835,194.633 L344.848,190.901 L339.055,195.533 L342.038,199.264 z M350.604,209.786 L355.804,205.63 L353.126,202.281 L347.927,206.437 L350.604,209.786 z M256.415,119.194 L246.449,111.233 L241.32,117.648 L251.288,125.612 L256.415,119.194 z M248.357,129.111 L238.92,121.573 L234.062,127.647 L243.501,135.188 L248.357,129.111 z M240.301,139.028 L231.393,131.915 L226.808,137.647 L235.718,144.766 L240.301,139.028 z M232.241,148.947 L223.862,142.253 L219.551,147.647 L227.933,154.34 L232.241,148.947 z M224.184,158.867 L216.336,152.596 L212.297,157.647 L220.146,163.918 L224.184,158.867 z M216.127,168.784 L208.806,162.935 L205.04,167.646 L212.359,173.495 L216.127,168.784 z M208.069,178.702 L201.278,173.277 L197.784,177.646 L204.575,183.071 L208.069,178.702 z M200.01,188.619 L193.75,183.616 L190.527,187.646 L196.789,192.649 L200.01,188.619 z M191.952,198.536 L186.223,193.958 L183.273,197.644 L189.003,202.224 L191.952,198.536 z M183.895,208.454 L178.694,204.298 L176.017,207.646 L181.219,211.801 L183.895,208.454 z M254.35,103.993 L259.887,111.591 L271.266,111.591 L276.954,103.993 L254.35,103.993 z M254.027,85.908 L258.455,93.506 L272.741,93.506 L277.294,85.908 L254.027,85.908 z M253.704,67.822 L257.026,75.419 L274.218,75.419 L277.632,67.822 L253.704,67.822 z M253.379,49.738 L255.593,57.332 L275.693,57.332 L277.969,49.738 L253.379,49.738 z M253.055,31.651 L254.162,39.249 L277.168,39.249 L278.307,31.651 L253.055,31.651 z M252.733,13.564 L278.646,13.564 L278.646,21.163 L252.733,21.163 z"
       fill="#FFFFFE"
       id="path80" />
  </g>
</svg>
